solid OpenSCAD_Model
  facet normal 0 0 -1
    outer loop
      vertex 7 17.3 0
      vertex 10 19.3 0
      vertex 10 17.3 0
    endloop
  endfacet
  facet normal 0 0 -1
    outer loop
      vertex 0 40.8 0
      vertex 40 40.8 0
      vertex 11 20.3 0
    endloop
  endfacet
  facet normal 0 0 -1
    outer loop
      vertex 0 40.8 0
      vertex 4 20.3 0
      vertex 0 1.2207e-05 0
    endloop
  endfacet
  facet normal 0 0 -1
    outer loop
      vertex 4 20.3 0
      vertex 10 19.3 0
      vertex 7 17.3 0
    endloop
  endfacet
  facet normal 0 0 -1
    outer loop
      vertex 4 20.3 0
      vertex 11 20.3 0
      vertex 10 19.3 0
    endloop
  endfacet
  facet normal 0 0 -1
    outer loop
      vertex 11 20.3 0
      vertex 40 40.8 0
      vertex 40 20.3 0
    endloop
  endfacet
  facet normal 0 0 -1
    outer loop
      vertex 4 20.3 0
      vertex 0 40.8 0
      vertex 11 20.3 0
    endloop
  endfacet
  facet normal 0 0 -1
    outer loop
      vertex 4 1.2207e-05 0
      vertex 0 1.2207e-05 0
      vertex 4 20.3 0
    endloop
  endfacet
  facet normal 0 -0 1
    outer loop
      vertex 10 17.3 2
      vertex 10 19.3 2
      vertex 7 17.3 2
    endloop
  endfacet
  facet normal 0 -0 1
    outer loop
      vertex 11 20.3 2
      vertex 40 40.8 2
      vertex 0 40.8 2
    endloop
  endfacet
  facet normal 0 0 1
    outer loop
      vertex 0 1.2207e-05 2
      vertex 4 20.3 2
      vertex 0 40.8 2
    endloop
  endfacet
  facet normal 0 -0 1
    outer loop
      vertex 7 17.3 2
      vertex 10 19.3 2
      vertex 4 20.3 2
    endloop
  endfacet
  facet normal 0 -0 1
    outer loop
      vertex 10 19.3 2
      vertex 11 20.3 2
      vertex 4 20.3 2
    endloop
  endfacet
  facet normal 0 -0 1
    outer loop
      vertex 40 20.3 2
      vertex 40 40.8 2
      vertex 11 20.3 2
    endloop
  endfacet
  facet normal 0 0 1
    outer loop
      vertex 11 20.3 2
      vertex 0 40.8 2
      vertex 4 20.3 2
    endloop
  endfacet
  facet normal 0 0 1
    outer loop
      vertex 4 20.3 2
      vertex 0 1.2207e-05 2
      vertex 4 1.2207e-05 2
    endloop
  endfacet
  facet normal -0.707107 -0.707107 0
    outer loop
      vertex 7 17.3 0
      vertex 4 20.3 2
      vertex 4 20.3 0
    endloop
  endfacet
  facet normal -0.707107 -0.707107 0
    outer loop
      vertex 7 17.3 0
      vertex 7 17.3 2
      vertex 4 20.3 2
    endloop
  endfacet
  facet normal 0 -1 0
    outer loop
      vertex 10 17.3 0
      vertex 7 17.3 2
      vertex 7 17.3 0
    endloop
  endfacet
  facet normal 0 -1 0
    outer loop
      vertex 10 17.3 0
      vertex 10 17.3 2
      vertex 7 17.3 2
    endloop
  endfacet
  facet normal 1 0 0
    outer loop
      vertex 10 19.3 0
      vertex 10 17.3 2
      vertex 10 17.3 0
    endloop
  endfacet
  facet normal 1 0 -0
    outer loop
      vertex 10 19.3 0
      vertex 10 19.3 2
      vertex 10 17.3 2
    endloop
  endfacet
  facet normal 0.707107 -0.707107 0
    outer loop
      vertex 11 20.3 0
      vertex 10 19.3 2
      vertex 10 19.3 0
    endloop
  endfacet
  facet normal 0.707107 -0.707107 0
    outer loop
      vertex 11 20.3 0
      vertex 11 20.3 2
      vertex 10 19.3 2
    endloop
  endfacet
  facet normal 0 -1 0
    outer loop
      vertex 40 20.3 0
      vertex 11 20.3 2
      vertex 11 20.3 0
    endloop
  endfacet
  facet normal 0 -1 0
    outer loop
      vertex 40 20.3 0
      vertex 40 20.3 2
      vertex 11 20.3 2
    endloop
  endfacet
  facet normal 1 0 0
    outer loop
      vertex 40 40.8 0
      vertex 40 20.3 2
      vertex 40 20.3 0
    endloop
  endfacet
  facet normal 1 0 -0
    outer loop
      vertex 40 40.8 0
      vertex 40 40.8 2
      vertex 40 20.3 2
    endloop
  endfacet
  facet normal 0 1 0
    outer loop
      vertex 0 40.8 0
      vertex 40 40.8 2
      vertex 40 40.8 0
    endloop
  endfacet
  facet normal 0 1 0
    outer loop
      vertex 0 40.8 0
      vertex 0 40.8 2
      vertex 40 40.8 2
    endloop
  endfacet
  facet normal -1 0 0
    outer loop
      vertex 0 1.2207e-05 0
      vertex 0 40.8 2
      vertex 0 40.8 0
    endloop
  endfacet
  facet normal -1 0 0
    outer loop
      vertex 0 1.2207e-05 0
      vertex 0 1.2207e-05 2
      vertex 0 40.8 2
    endloop
  endfacet
  facet normal 0 -1 0
    outer loop
      vertex 4 1.2207e-05 0
      vertex 0 1.2207e-05 2
      vertex 0 1.2207e-05 0
    endloop
  endfacet
  facet normal 0 -1 0
    outer loop
      vertex 4 1.2207e-05 0
      vertex 4 1.2207e-05 2
      vertex 0 1.2207e-05 2
    endloop
  endfacet
  facet normal 1 0 0
    outer loop
      vertex 4 20.3 0
      vertex 4 1.2207e-05 2
      vertex 4 1.2207e-05 0
    endloop
  endfacet
  facet normal 1 0 -0
    outer loop
      vertex 4 20.3 0
      vertex 4 20.3 2
      vertex 4 1.2207e-05 2
    endloop
  endfacet
endsolid OpenSCAD_Model
