solid OpenSCAD_Model
  facet normal 0 -1 0
    outer loop
      vertex 4 1.5 25.9901
      vertex 4.00995 1.5 26
      vertex 4.00046 1.5 25.9995
    endloop
  endfacet
  facet normal 0 -1 -0
    outer loop
      vertex 4.00995 1.5 26
      vertex 4 1.5 25.9901
      vertex 5.78687 1.5 26
    endloop
  endfacet
  facet normal -0 -1 0
    outer loop
      vertex 5.80161 1.5 25.9903
      vertex 5.78687 1.5 26
      vertex 4 1.5 25.9901
    endloop
  endfacet
  facet normal 0 -1 0
    outer loop
      vertex 5.78687 1.5 26
      vertex 5.80161 1.5 25.9903
      vertex 5.79967 1.5 25.9992
    endloop
  endfacet
  facet normal 0 -1 0
    outer loop
      vertex 4 1.5 25.9901
      vertex 6.79887 1.5 20.0067
      vertex 5.80161 1.5 25.9903
    endloop
  endfacet
  facet normal 0 -1 0
    outer loop
      vertex 6.79999 1.5 19.9901
      vertex 6.79887 1.5 20.0067
      vertex 4 1.5 25.9901
    endloop
  endfacet
  facet normal 0 -1 0
    outer loop
      vertex 6.79887 1.5 20.0067
      vertex 6.79999 1.5 19.9901
      vertex 6.79935 1.5 20.0031
    endloop
  endfacet
  facet normal 0 -1 0
    outer loop
      vertex 4 1.5 12
      vertex 6.79999 1.5 19.9901
      vertex 4 1.5 25.9901
    endloop
  endfacet
  facet normal 0 -1 -0
    outer loop
      vertex 6.79999 1.5 19.9901
      vertex 4 1.5 12
      vertex 6.79999 1.5 12
    endloop
  endfacet
  facet normal 0 -1 0
    outer loop
      vertex 86 1.5 29.9901
      vertex 85.9901 1.5 30
      vertex 84.2131 1.5 30
    endloop
  endfacet
  facet normal 0 -1 0
    outer loop
      vertex 84.1984 1.5 29.9903
      vertex 84.2131 1.5 30
      vertex 84.2003 1.5 29.9992
    endloop
  endfacet
  facet normal 0 -1 -0
    outer loop
      vertex 84.2131 1.5 30
      vertex 84.1984 1.5 29.9903
      vertex 86 1.5 29.9901
    endloop
  endfacet
  facet normal 0 -1 0
    outer loop
      vertex 85.9901 1.5 30
      vertex 86 1.5 29.9901
      vertex 85.9995 1.5 29.9995
    endloop
  endfacet
  facet normal 0 -1 0
    outer loop
      vertex 83.2011 1.5 24.0067
      vertex 86 1.5 29.9901
      vertex 84.1984 1.5 29.9903
    endloop
  endfacet
  facet normal 0 -1 0
    outer loop
      vertex 83.2 1.5 23.9901
      vertex 83.2011 1.5 24.0067
      vertex 83.2007 1.5 24.0031
    endloop
  endfacet
  facet normal 0 -1 -0
    outer loop
      vertex 83.2011 1.5 24.0067
      vertex 83.2 1.5 23.9901
      vertex 86 1.5 29.9901
    endloop
  endfacet
  facet normal 0 -1 0
    outer loop
      vertex 83.2 1.5 23.9901
      vertex 86 1.5 14.6657
      vertex 86 1.5 29.9901
    endloop
  endfacet
  facet normal 0 -1 0
    outer loop
      vertex 83.2 1.5 12
      vertex 86 1.5 14.6657
      vertex 83.2 1.5 23.9901
    endloop
  endfacet
  facet normal 0 -1 -0
    outer loop
      vertex 86 1.5 14.6657
      vertex 83.2 1.5 12
      vertex 86.0019 1.5 14.6265
    endloop
  endfacet
  facet normal 0 -1 -0
    outer loop
      vertex 86.0019 1.5 14.6265
      vertex 83.2 1.5 12
      vertex 86.0077 1.5 14.5876
    endloop
  endfacet
  facet normal 0 -1 -0
    outer loop
      vertex 86.0077 1.5 14.5876
      vertex 83.2 1.5 12
      vertex 86.0172 1.5 14.5496
    endloop
  endfacet
  facet normal 0 -1 0
    outer loop
      vertex 83.2 1.5 12
      vertex 86.0304 1.5 14.5126
      vertex 86.0172 1.5 14.5496
    endloop
  endfacet
  facet normal 0 -1 0
    outer loop
      vertex 83.2 1.5 12
      vertex 86.0472 1.5 14.4771
      vertex 86.0304 1.5 14.5126
    endloop
  endfacet
  facet normal 0 -1 0
    outer loop
      vertex 83.2 1.5 12
      vertex 86.0674 1.5 14.4435
      vertex 86.0472 1.5 14.4771
    endloop
  endfacet
  facet normal 0 -1 0
    outer loop
      vertex 83.2 1.5 12
      vertex 86.0908 1.5 14.4119
      vertex 86.0674 1.5 14.4435
    endloop
  endfacet
  facet normal 0 -1 0
    outer loop
      vertex 83.2 1.5 12
      vertex 86.1172 1.5 14.3828
      vertex 86.0908 1.5 14.4119
    endloop
  endfacet
  facet normal 0 -1 0
    outer loop
      vertex 83.2 1.5 12
      vertex 88.493 1.5 12.007
      vertex 86.1172 1.5 14.3828
    endloop
  endfacet
  facet normal 0 -1 -0
    outer loop
      vertex 88.493 1.5 12.007
      vertex 83.2 1.5 12
      vertex 88.4993 1.5 12
    endloop
  endfacet
  facet normal -0.998805 0 0.0488777
    outer loop
      vertex 4 1.5 25.9901
      vertex 4.00046 19 25.9995
      vertex 4 19 25.9901
    endloop
  endfacet
  facet normal -0.998805 0 0.0488777
    outer loop
      vertex 4.00046 19 25.9995
      vertex 4 1.5 25.9901
      vertex 4.00046 1.5 25.9995
    endloop
  endfacet
  facet normal 0.977057 -0 0.212977
    outer loop
      vertex 5.79967 1.5 25.9992
      vertex 5.80161 19 25.9903
      vertex 5.79967 19 25.9992
    endloop
  endfacet
  facet normal 0.977057 0 0.212977
    outer loop
      vertex 5.80161 19 25.9903
      vertex 5.79967 1.5 25.9992
      vertex 5.80161 1.5 25.9903
    endloop
  endfacet
  facet normal -0.0526141 0 0.998615
    outer loop
      vertex 4.00046 19 25.9995
      vertex 4.00995 1.5 26
      vertex 4.00995 19 26
    endloop
  endfacet
  facet normal -0.0526141 0 0.998615
    outer loop
      vertex 4.00995 1.5 26
      vertex 4.00046 19 25.9995
      vertex 4.00046 1.5 25.9995
    endloop
  endfacet
  facet normal 0.986394 -0 0.164398
    outer loop
      vertex 5.80161 1.5 25.9903
      vertex 6.79887 19 20.0067
      vertex 5.80161 19 25.9903
    endloop
  endfacet
  facet normal 0.986394 0 0.164398
    outer loop
      vertex 6.79887 19 20.0067
      vertex 5.80161 1.5 25.9903
      vertex 6.79887 1.5 20.0067
    endloop
  endfacet
  facet normal 0.99879 -0 0.0491712
    outer loop
      vertex 6.79935 1.5 20.0031
      vertex 6.79999 19 19.9901
      vertex 6.79935 19 20.0031
    endloop
  endfacet
  facet normal 0.99879 0 0.0491712
    outer loop
      vertex 6.79999 19 19.9901
      vertex 6.79935 1.5 20.0031
      vertex 6.79999 1.5 19.9901
    endloop
  endfacet
  facet normal -0 0 1
    outer loop
      vertex 4.00995 19 26
      vertex 5.78687 1.5 26
      vertex 5.78687 19 26
    endloop
  endfacet
  facet normal 0 0 1
    outer loop
      vertex 5.78687 1.5 26
      vertex 4.00995 19 26
      vertex 4.00995 1.5 26
    endloop
  endfacet
  facet normal -1 0 0
    outer loop
      vertex 4 1.5 12
      vertex 4 19 25.9901
      vertex 4 19 12
    endloop
  endfacet
  facet normal -1 -0 0
    outer loop
      vertex 4 19 25.9901
      vertex 4 1.5 12
      vertex 4 1.5 25.9901
    endloop
  endfacet
  facet normal 0.0623783 0 0.998053
    outer loop
      vertex 5.78687 19 26
      vertex 5.79967 1.5 25.9992
      vertex 5.79967 19 25.9992
    endloop
  endfacet
  facet normal 0.0623783 0 0.998053
    outer loop
      vertex 5.79967 1.5 25.9992
      vertex 5.78687 19 26
      vertex 5.78687 1.5 26
    endloop
  endfacet
  facet normal 0.991228 -0 0.132164
    outer loop
      vertex 6.79887 1.5 20.0067
      vertex 6.79935 19 20.0031
      vertex 6.79887 19 20.0067
    endloop
  endfacet
  facet normal 0.991228 0 0.132164
    outer loop
      vertex 6.79935 19 20.0031
      vertex 6.79887 1.5 20.0067
      vertex 6.79935 1.5 20.0031
    endloop
  endfacet
  facet normal 1 -0 0
    outer loop
      vertex 6.79999 1.5 19.9901
      vertex 6.79999 19 12
      vertex 6.79999 19 19.9901
    endloop
  endfacet
  facet normal 1 0 0
    outer loop
      vertex 6.79999 19 12
      vertex 6.79999 1.5 19.9901
      vertex 6.79999 1.5 12
    endloop
  endfacet
  facet normal 0 1 0
    outer loop
      vertex 4 19 25.9901
      vertex 4.00995 19 26
      vertex 5.78687 19 26
    endloop
  endfacet
  facet normal 0 1 0
    outer loop
      vertex 5.80161 19 25.9903
      vertex 5.78687 19 26
      vertex 5.79967 19 25.9992
    endloop
  endfacet
  facet normal 0 1 0
    outer loop
      vertex 5.78687 19 26
      vertex 5.80161 19 25.9903
      vertex 4 19 25.9901
    endloop
  endfacet
  facet normal 0 1 0
    outer loop
      vertex 4.00995 19 26
      vertex 4 19 25.9901
      vertex 4.00046 19 25.9995
    endloop
  endfacet
  facet normal 0 1 0
    outer loop
      vertex 6.79887 19 20.0067
      vertex 4 19 25.9901
      vertex 5.80161 19 25.9903
    endloop
  endfacet
  facet normal 0 1 0
    outer loop
      vertex 6.79999 19 19.9901
      vertex 6.79887 19 20.0067
      vertex 6.79935 19 20.0031
    endloop
  endfacet
  facet normal 0 1 0
    outer loop
      vertex 6.79887 19 20.0067
      vertex 6.79999 19 19.9901
      vertex 4 19 25.9901
    endloop
  endfacet
  facet normal 0 1 0
    outer loop
      vertex 4 19 12
      vertex 6.79999 19 19.9901
      vertex 6.79999 19 12
    endloop
  endfacet
  facet normal 0 1 0
    outer loop
      vertex 6.79999 19 19.9901
      vertex 4 19 12
      vertex 4 19 25.9901
    endloop
  endfacet
  facet normal 0 1 0
    outer loop
      vertex 86 19 29.9901
      vertex 85.9901 19 30
      vertex 85.9995 19 29.9995
    endloop
  endfacet
  facet normal 0 1 0
    outer loop
      vertex 85.9901 19 30
      vertex 86 19 29.9901
      vertex 84.2131 19 30
    endloop
  endfacet
  facet normal -0 1 0
    outer loop
      vertex 84.1984 19 29.9903
      vertex 84.2131 19 30
      vertex 86 19 29.9901
    endloop
  endfacet
  facet normal 0 1 0
    outer loop
      vertex 84.2131 19 30
      vertex 84.1984 19 29.9903
      vertex 84.2003 19 29.9992
    endloop
  endfacet
  facet normal 0 1 0
    outer loop
      vertex 86 19 29.9901
      vertex 83.2011 19 24.0067
      vertex 84.1984 19 29.9903
    endloop
  endfacet
  facet normal 0 1 0
    outer loop
      vertex 83.2 19 23.9901
      vertex 83.2011 19 24.0067
      vertex 86 19 29.9901
    endloop
  endfacet
  facet normal 0 1 0
    outer loop
      vertex 83.2011 19 24.0067
      vertex 83.2 19 23.9901
      vertex 83.2007 19 24.0031
    endloop
  endfacet
  facet normal 0 1 -0
    outer loop
      vertex 86 19 14.6657
      vertex 83.2 19 23.9901
      vertex 86 19 29.9901
    endloop
  endfacet
  facet normal 0 1 0
    outer loop
      vertex 83.2 19 12
      vertex 86 19 14.6657
      vertex 86.0019 19 14.6265
    endloop
  endfacet
  facet normal 0 1 0
    outer loop
      vertex 83.2 19 12
      vertex 86.0019 19 14.6265
      vertex 86.0077 19 14.5876
    endloop
  endfacet
  facet normal 0 1 0
    outer loop
      vertex 83.2 19 12
      vertex 86.0077 19 14.5876
      vertex 86.0172 19 14.5496
    endloop
  endfacet
  facet normal 0 1 0
    outer loop
      vertex 83.2 19 12
      vertex 88.493 19 12.007
      vertex 88.4993 19 12
    endloop
  endfacet
  facet normal 0 1 0
    outer loop
      vertex 86 19 14.6657
      vertex 83.2 19 12
      vertex 83.2 19 23.9901
    endloop
  endfacet
  facet normal 0 1 0
    outer loop
      vertex 86.0304 19 14.5126
      vertex 83.2 19 12
      vertex 86.0172 19 14.5496
    endloop
  endfacet
  facet normal 0 1 0
    outer loop
      vertex 86.0472 19 14.4771
      vertex 83.2 19 12
      vertex 86.0304 19 14.5126
    endloop
  endfacet
  facet normal 0 1 0
    outer loop
      vertex 86.0674 19 14.4435
      vertex 83.2 19 12
      vertex 86.0472 19 14.4771
    endloop
  endfacet
  facet normal 0 1 0
    outer loop
      vertex 86.0908 19 14.4119
      vertex 83.2 19 12
      vertex 86.0674 19 14.4435
    endloop
  endfacet
  facet normal 0 1 0
    outer loop
      vertex 86.1172 19 14.3828
      vertex 83.2 19 12
      vertex 86.0908 19 14.4119
    endloop
  endfacet
  facet normal 0 1 0
    outer loop
      vertex 88.493 19 12.007
      vertex 83.2 19 12
      vertex 86.1172 19 14.3828
    endloop
  endfacet
  facet normal -1 0 0
    outer loop
      vertex 83.2 1.5 12
      vertex 83.2 19 23.9901
      vertex 83.2 19 12
    endloop
  endfacet
  facet normal -1 -0 0
    outer loop
      vertex 83.2 19 23.9901
      vertex 83.2 1.5 12
      vertex 83.2 1.5 23.9901
    endloop
  endfacet
  facet normal -0.998553 0 0.0537683
    outer loop
      vertex 83.2 1.5 23.9901
      vertex 83.2007 19 24.0031
      vertex 83.2 19 23.9901
    endloop
  endfacet
  facet normal -0.998553 0 0.0537683
    outer loop
      vertex 83.2007 19 24.0031
      vertex 83.2 1.5 23.9901
      vertex 83.2007 1.5 24.0031
    endloop
  endfacet
  facet normal -0.993884 0 0.110432
    outer loop
      vertex 83.2007 1.5 24.0031
      vertex 83.2011 19 24.0067
      vertex 83.2007 19 24.0031
    endloop
  endfacet
  facet normal -0.993884 0 0.110432
    outer loop
      vertex 83.2011 19 24.0067
      vertex 83.2007 1.5 24.0031
      vertex 83.2011 1.5 24.0067
    endloop
  endfacet
  facet normal -0.986393 0 0.164404
    outer loop
      vertex 83.2011 1.5 24.0067
      vertex 84.1984 19 29.9903
      vertex 83.2011 19 24.0067
    endloop
  endfacet
  facet normal -0.986393 0 0.164404
    outer loop
      vertex 84.1984 19 29.9903
      vertex 83.2011 1.5 24.0067
      vertex 84.1984 1.5 29.9903
    endloop
  endfacet
  facet normal -0.977963 0 0.208779
    outer loop
      vertex 84.1984 1.5 29.9903
      vertex 84.2003 19 29.9992
      vertex 84.1984 19 29.9903
    endloop
  endfacet
  facet normal -0.977963 0 0.208779
    outer loop
      vertex 84.2003 19 29.9992
      vertex 84.1984 1.5 29.9903
      vertex 84.2003 1.5 29.9992
    endloop
  endfacet
  facet normal -0.0623783 0 0.998053
    outer loop
      vertex 84.2003 19 29.9992
      vertex 84.2131 1.5 30
      vertex 84.2131 19 30
    endloop
  endfacet
  facet normal -0.0623783 0 0.998053
    outer loop
      vertex 84.2131 1.5 30
      vertex 84.2003 19 29.9992
      vertex 84.2003 1.5 29.9992
    endloop
  endfacet
  facet normal -0 0 1
    outer loop
      vertex 84.2131 19 30
      vertex 85.9901 1.5 30
      vertex 85.9901 19 30
    endloop
  endfacet
  facet normal 0 0 1
    outer loop
      vertex 85.9901 1.5 30
      vertex 84.2131 19 30
      vertex 84.2131 1.5 30
    endloop
  endfacet
  facet normal 0.0531164 0 0.998588
    outer loop
      vertex 85.9901 19 30
      vertex 85.9995 1.5 29.9995
      vertex 85.9995 19 29.9995
    endloop
  endfacet
  facet normal 0.0531164 0 0.998588
    outer loop
      vertex 85.9995 1.5 29.9995
      vertex 85.9901 19 30
      vertex 85.9901 1.5 30
    endloop
  endfacet
  facet normal 0.998588 -0 0.0531164
    outer loop
      vertex 85.9995 1.5 29.9995
      vertex 86 19 29.9901
      vertex 85.9995 19 29.9995
    endloop
  endfacet
  facet normal 0.998588 0 0.0531164
    outer loop
      vertex 86 19 29.9901
      vertex 85.9995 1.5 29.9995
      vertex 86 1.5 29.9901
    endloop
  endfacet
  facet normal 1 -0 0
    outer loop
      vertex 86 1.5 29.9901
      vertex 86 19 14.6657
      vertex 86 19 29.9901
    endloop
  endfacet
  facet normal 1 0 0
    outer loop
      vertex 86 19 14.6657
      vertex 86 1.5 29.9901
      vertex 86 1.5 14.6657
    endloop
  endfacet
  facet normal 0.998827 -0 0.0484126
    outer loop
      vertex 86 1.5 14.6657
      vertex 86.0019 19 14.6265
      vertex 86 19 14.6657
    endloop
  endfacet
  facet normal 0.998827 0 0.0484126
    outer loop
      vertex 86.0019 19 14.6265
      vertex 86 1.5 14.6657
      vertex 86.0019 1.5 14.6265
    endloop
  endfacet
  facet normal 0.989067 -0 0.14747
    outer loop
      vertex 86.0019 1.5 14.6265
      vertex 86.0077 19 14.5876
      vertex 86.0019 19 14.6265
    endloop
  endfacet
  facet normal 0.989067 0 0.14747
    outer loop
      vertex 86.0077 19 14.5876
      vertex 86.0019 1.5 14.6265
      vertex 86.0077 1.5 14.5876
    endloop
  endfacet
  facet normal 0.970143 -0 0.242536
    outer loop
      vertex 86.0077 1.5 14.5876
      vertex 86.0172 19 14.5496
      vertex 86.0077 19 14.5876
    endloop
  endfacet
  facet normal 0.970143 0 0.242536
    outer loop
      vertex 86.0172 19 14.5496
      vertex 86.0077 1.5 14.5876
      vertex 86.0172 1.5 14.5496
    endloop
  endfacet
  facet normal 0.941857 -0 0.336014
    outer loop
      vertex 86.0172 1.5 14.5496
      vertex 86.0304 19 14.5126
      vertex 86.0172 19 14.5496
    endloop
  endfacet
  facet normal 0.941857 0 0.336014
    outer loop
      vertex 86.0304 19 14.5126
      vertex 86.0172 1.5 14.5496
      vertex 86.0304 1.5 14.5126
    endloop
  endfacet
  facet normal 0.903893 -0 0.427758
    outer loop
      vertex 86.0304 1.5 14.5126
      vertex 86.0472 19 14.4771
      vertex 86.0304 19 14.5126
    endloop
  endfacet
  facet normal 0.903893 0 0.427758
    outer loop
      vertex 86.0472 19 14.4771
      vertex 86.0304 1.5 14.5126
      vertex 86.0472 1.5 14.4771
    endloop
  endfacet
  facet normal 0.857042 -0 0.515246
    outer loop
      vertex 86.0472 1.5 14.4771
      vertex 86.0674 19 14.4435
      vertex 86.0472 19 14.4771
    endloop
  endfacet
  facet normal 0.857042 0 0.515246
    outer loop
      vertex 86.0674 19 14.4435
      vertex 86.0472 1.5 14.4771
      vertex 86.0674 1.5 14.4435
    endloop
  endfacet
  facet normal 0.803647 -0 0.595106
    outer loop
      vertex 86.0674 1.5 14.4435
      vertex 86.0908 19 14.4119
      vertex 86.0674 19 14.4435
    endloop
  endfacet
  facet normal 0.803647 0 0.595106
    outer loop
      vertex 86.0908 19 14.4119
      vertex 86.0674 1.5 14.4435
      vertex 86.0908 1.5 14.4119
    endloop
  endfacet
  facet normal 0.740631 -0 0.671912
    outer loop
      vertex 86.0908 1.5 14.4119
      vertex 86.1172 19 14.3828
      vertex 86.0908 19 14.4119
    endloop
  endfacet
  facet normal 0.740631 0 0.671912
    outer loop
      vertex 86.1172 19 14.3828
      vertex 86.0908 1.5 14.4119
      vertex 86.1172 1.5 14.3828
    endloop
  endfacet
  facet normal 0.707107 -0 0.707107
    outer loop
      vertex 86.1172 1.5 14.3828
      vertex 88.493 19 12.007
      vertex 86.1172 19 14.3828
    endloop
  endfacet
  facet normal 0.707107 0 0.707107
    outer loop
      vertex 88.493 19 12.007
      vertex 86.1172 1.5 14.3828
      vertex 88.493 1.5 12.007
    endloop
  endfacet
  facet normal 0.743294 -0 0.668965
    outer loop
      vertex 88.493 1.5 12.007
      vertex 88.4993 19 12
      vertex 88.493 19 12.007
    endloop
  endfacet
  facet normal 0.743294 0 0.668965
    outer loop
      vertex 88.4993 19 12
      vertex 88.493 1.5 12.007
      vertex 88.4993 1.5 12
    endloop
  endfacet
  facet normal -1 0 0
    outer loop
      vertex 0 19.7 12
      vertex 0 20.5 11.2
      vertex 0 20.5 0
    endloop
  endfacet
  facet normal -1 0 0
    outer loop
      vertex 0 20.5 11.2
      vertex 0 19.7 12
      vertex 0 20.4846 11.3561
    endloop
  endfacet
  facet normal -1 0 0
    outer loop
      vertex 0 20.4846 11.3561
      vertex 0 19.7 12
      vertex 0 20.4391 11.5061
    endloop
  endfacet
  facet normal -1 0 0
    outer loop
      vertex 0 20.4391 11.5061
      vertex 0 19.7 12
      vertex 0 20.3652 11.6445
    endloop
  endfacet
  facet normal -1 0 0
    outer loop
      vertex 0 20.3652 11.6445
      vertex 0 19.7 12
      vertex 0 20.2657 11.7657
    endloop
  endfacet
  facet normal -1 0 0
    outer loop
      vertex 0 20.2657 11.7657
      vertex 0 19.7 12
      vertex 0 20.1445 11.8652
    endloop
  endfacet
  facet normal -1 0 0
    outer loop
      vertex 0 20.1445 11.8652
      vertex 0 19.7 12
      vertex 0 20.0061 11.9391
    endloop
  endfacet
  facet normal -1 0 0
    outer loop
      vertex 0 20.0061 11.9391
      vertex 0 19.7 12
      vertex 0 19.8561 11.9846
    endloop
  endfacet
  facet normal -1 0 0
    outer loop
      vertex 0 20.5 0
      vertex 0 1.5 12
      vertex 0 19.7 12
    endloop
  endfacet
  facet normal -1 0 0
    outer loop
      vertex 0 0.0368805 0
      vertex 0 1.5 12
      vertex 0 20.5 0
    endloop
  endfacet
  facet normal -1 0 0
    outer loop
      vertex 0 0.0368805 10.8192
      vertex 0 1.5 12
      vertex 0 0.0368805 0
    endloop
  endfacet
  facet normal -1 0 0
    outer loop
      vertex 0 1.5 12
      vertex 0 0.0368805 10.8192
      vertex 0 1.20737 11.9712
    endloop
  endfacet
  facet normal -1 0 0
    outer loop
      vertex 0 1.20737 11.9712
      vertex 0 0.0368805 10.8192
      vertex 0 0.92598 11.8858
    endloop
  endfacet
  facet normal -1 0 0
    outer loop
      vertex 0 0.666656 11.7472
      vertex 0 0.0368805 10.8192
      vertex 0 0.439346 11.5607
    endloop
  endfacet
  facet normal -1 0 0
    outer loop
      vertex 0 0.439346 11.5607
      vertex 0 0.0368805 10.8192
      vertex 0 0.252808 11.3333
    endloop
  endfacet
  facet normal -1 0 0
    outer loop
      vertex 0 0.92598 11.8858
      vertex 0 0.0368805 10.8192
      vertex 0 0.666656 11.7472
    endloop
  endfacet
  facet normal -1 0 0
    outer loop
      vertex 0 0.252808 11.3333
      vertex 0 0.0368805 10.8192
      vertex 0 0.114182 11.074
    endloop
  endfacet
  facet normal 1 0 0
    outer loop
      vertex 90 19.7 12
      vertex 90 20.5 11.2
      vertex 90 20.4846 11.3561
    endloop
  endfacet
  facet normal 1 0 0
    outer loop
      vertex 90 19.7 12
      vertex 90 20.4846 11.3561
      vertex 90 20.4391 11.5061
    endloop
  endfacet
  facet normal 1 0 0
    outer loop
      vertex 90 19.7 12
      vertex 90 20.4391 11.5061
      vertex 90 20.3652 11.6445
    endloop
  endfacet
  facet normal 1 0 0
    outer loop
      vertex 90 19.7 12
      vertex 90 20.3652 11.6445
      vertex 90 20.2657 11.7657
    endloop
  endfacet
  facet normal 1 0 0
    outer loop
      vertex 90 19.7 12
      vertex 90 20.2657 11.7657
      vertex 90 20.1445 11.8652
    endloop
  endfacet
  facet normal 1 0 0
    outer loop
      vertex 90 19.7 12
      vertex 90 20.1445 11.8652
      vertex 90 20.0061 11.9391
    endloop
  endfacet
  facet normal 1 0 0
    outer loop
      vertex 90 19.7 12
      vertex 90 20.0061 11.9391
      vertex 90 19.8561 11.9846
    endloop
  endfacet
  facet normal 1 0 0
    outer loop
      vertex 90 20.5 11.2
      vertex 90 19.7 12
      vertex 90 20.5 0
    endloop
  endfacet
  facet normal 1 -0 0
    outer loop
      vertex 90 1.5 12
      vertex 90 20.5 0
      vertex 90 19.7 12
    endloop
  endfacet
  facet normal 1 0 0
    outer loop
      vertex 90 0.0368805 10.8192
      vertex 90 1.5 12
      vertex 90 1.20737 11.9712
    endloop
  endfacet
  facet normal 1 0 0
    outer loop
      vertex 90 0.0368805 10.8192
      vertex 90 1.20737 11.9712
      vertex 90 0.92598 11.8858
    endloop
  endfacet
  facet normal 1 0 0
    outer loop
      vertex 90 0.0368805 10.8192
      vertex 90 0.92598 11.8858
      vertex 90 0.666656 11.7472
    endloop
  endfacet
  facet normal 1 0 0
    outer loop
      vertex 90 0.0368805 10.8192
      vertex 90 0.666656 11.7472
      vertex 90 0.439346 11.5607
    endloop
  endfacet
  facet normal 1 0 0
    outer loop
      vertex 90 0.0368805 10.8192
      vertex 90 0.439346 11.5607
      vertex 90 0.252808 11.3333
    endloop
  endfacet
  facet normal 1 0 0
    outer loop
      vertex 90 0.0368805 10.8192
      vertex 90 0.252808 11.3333
      vertex 90 0.114182 11.074
    endloop
  endfacet
  facet normal 1 0 0
    outer loop
      vertex 90 1.5 12
      vertex 90 0.0368805 10.8192
      vertex 90 0.0368805 0
    endloop
  endfacet
  facet normal 1 0 0
    outer loop
      vertex 90 1.5 12
      vertex 90 0.0368805 0
      vertex 90 20.5 0
    endloop
  endfacet
  facet normal 0 1 -0
    outer loop
      vertex 90 20.5 0
      vertex 0 20.5 11.2
      vertex 90 20.5 11.2
    endloop
  endfacet
  facet normal 0 1 0
    outer loop
      vertex 0 20.5 11.2
      vertex 90 20.5 0
      vertex 0 20.5 0
    endloop
  endfacet
  facet normal 0 0.995169 0.0981781
    outer loop
      vertex 90 20.5 11.2
      vertex 0 20.4846 11.3561
      vertex 90 20.4846 11.3561
    endloop
  endfacet
  facet normal 0 0.995169 0.0981781
    outer loop
      vertex 0 20.4846 11.3561
      vertex 90 20.5 11.2
      vertex 0 20.5 11.2
    endloop
  endfacet
  facet normal 0 0.956944 0.290273
    outer loop
      vertex 90 20.4846 11.3561
      vertex 0 20.4391 11.5061
      vertex 90 20.4391 11.5061
    endloop
  endfacet
  facet normal 0 0.956944 0.290273
    outer loop
      vertex 0 20.4391 11.5061
      vertex 90 20.4846 11.3561
      vertex 0 20.4846 11.3561
    endloop
  endfacet
  facet normal 0 0.882123 0.471018
    outer loop
      vertex 90 20.4391 11.5061
      vertex 0 20.3652 11.6445
      vertex 90 20.3652 11.6445
    endloop
  endfacet
  facet normal 0 0.882123 0.471018
    outer loop
      vertex 0 20.3652 11.6445
      vertex 90 20.4391 11.5061
      vertex 0 20.4391 11.5061
    endloop
  endfacet
  facet normal 0 0.772905 0.634522
    outer loop
      vertex 90 20.3652 11.6445
      vertex 0 20.2657 11.7657
      vertex 90 20.2657 11.7657
    endloop
  endfacet
  facet normal 0 0.772905 0.634522
    outer loop
      vertex 0 20.2657 11.7657
      vertex 90 20.3652 11.6445
      vertex 0 20.3652 11.6445
    endloop
  endfacet
  facet normal -0 0.634522 0.772905
    outer loop
      vertex 0 20.2657 11.7657
      vertex 90 20.1445 11.8652
      vertex 90 20.2657 11.7657
    endloop
  endfacet
  facet normal 0 0.634522 0.772905
    outer loop
      vertex 90 20.1445 11.8652
      vertex 0 20.2657 11.7657
      vertex 0 20.1445 11.8652
    endloop
  endfacet
  facet normal -0 0.471018 0.882123
    outer loop
      vertex 0 20.1445 11.8652
      vertex 90 20.0061 11.9391
      vertex 90 20.1445 11.8652
    endloop
  endfacet
  facet normal 0 0.471018 0.882123
    outer loop
      vertex 90 20.0061 11.9391
      vertex 0 20.1445 11.8652
      vertex 0 20.0061 11.9391
    endloop
  endfacet
  facet normal -0 0.290273 0.956944
    outer loop
      vertex 0 20.0061 11.9391
      vertex 90 19.8561 11.9846
      vertex 90 20.0061 11.9391
    endloop
  endfacet
  facet normal 0 0.290273 0.956944
    outer loop
      vertex 90 19.8561 11.9846
      vertex 0 20.0061 11.9391
      vertex 0 19.8561 11.9846
    endloop
  endfacet
  facet normal -0 0.0981781 0.995169
    outer loop
      vertex 0 19.8561 11.9846
      vertex 90 19.7 12
      vertex 90 19.8561 11.9846
    endloop
  endfacet
  facet normal 0 0.0981781 0.995169
    outer loop
      vertex 90 19.7 12
      vertex 0 19.8561 11.9846
      vertex 0 19.7 12
    endloop
  endfacet
  facet normal 0 0 1
    outer loop
      vertex 90 19.7 12
      vertex 88.4993 19 12
      vertex 90 1.5 12
    endloop
  endfacet
  facet normal 0 0 1
    outer loop
      vertex 90 19.7 12
      vertex 83.2 19 12
      vertex 88.4993 19 12
    endloop
  endfacet
  facet normal 0 0 1
    outer loop
      vertex 83.2 19 12
      vertex 6.79999 19 12
      vertex 83.2 1.5 12
    endloop
  endfacet
  facet normal 0 0 1
    outer loop
      vertex 90 19.7 12
      vertex 6.79999 19 12
      vertex 83.2 19 12
    endloop
  endfacet
  facet normal -0 0 1
    outer loop
      vertex 0 19.7 12
      vertex 6.79999 19 12
      vertex 90 19.7 12
    endloop
  endfacet
  facet normal 0 0 1
    outer loop
      vertex 6.79999 19 12
      vertex 0 19.7 12
      vertex 4 19 12
    endloop
  endfacet
  facet normal 0 0 1
    outer loop
      vertex 0 1.5 12
      vertex 4 19 12
      vertex 0 19.7 12
    endloop
  endfacet
  facet normal 0 0 1
    outer loop
      vertex 4 19 12
      vertex 0 1.5 12
      vertex 4 1.5 12
    endloop
  endfacet
  facet normal 0 0 1
    outer loop
      vertex 90 1.5 12
      vertex 88.4993 19 12
      vertex 88.4993 1.5 12
    endloop
  endfacet
  facet normal 0 0 1
    outer loop
      vertex 83.2 1.5 12
      vertex 6.79999 19 12
      vertex 6.79999 1.5 12
    endloop
  endfacet
  facet normal 0 -0.0979446 0.995192
    outer loop
      vertex 88.4993 1.5 12
      vertex 90 1.20737 11.9712
      vertex 90 1.5 12
    endloop
  endfacet
  facet normal 0 -0.0979446 0.995192
    outer loop
      vertex 83.2 1.5 12
      vertex 90 1.20737 11.9712
      vertex 88.4993 1.5 12
    endloop
  endfacet
  facet normal 0 -0.0979446 0.995192
    outer loop
      vertex 6.79999 1.5 12
      vertex 90 1.20737 11.9712
      vertex 83.2 1.5 12
    endloop
  endfacet
  facet normal 0 -0.0979446 0.995192
    outer loop
      vertex 0 1.20737 11.9712
      vertex 6.79999 1.5 12
      vertex 4 1.5 12
    endloop
  endfacet
  facet normal 0 -0.0979446 0.995192
    outer loop
      vertex 0 1.20737 11.9712
      vertex 4 1.5 12
      vertex 0 1.5 12
    endloop
  endfacet
  facet normal 0 -0.0979446 0.995192
    outer loop
      vertex 6.79999 1.5 12
      vertex 0 1.20737 11.9712
      vertex 90 1.20737 11.9712
    endloop
  endfacet
  facet normal 0 -0.290413 0.956901
    outer loop
      vertex 0 1.20737 11.9712
      vertex 90 0.92598 11.8858
      vertex 90 1.20737 11.9712
    endloop
  endfacet
  facet normal 0 -0.290413 0.956901
    outer loop
      vertex 90 0.92598 11.8858
      vertex 0 1.20737 11.9712
      vertex 0 0.92598 11.8858
    endloop
  endfacet
  facet normal 0 -0.471366 0.881938
    outer loop
      vertex 0 0.92598 11.8858
      vertex 90 0.666656 11.7472
      vertex 90 0.92598 11.8858
    endloop
  endfacet
  facet normal 0 -0.471366 0.881938
    outer loop
      vertex 90 0.666656 11.7472
      vertex 0 0.92598 11.8858
      vertex 0 0.666656 11.7472
    endloop
  endfacet
  facet normal 0 -0.634295 0.773091
    outer loop
      vertex 0 0.666656 11.7472
      vertex 90 0.439346 11.5607
      vertex 90 0.666656 11.7472
    endloop
  endfacet
  facet normal 0 -0.634295 0.773091
    outer loop
      vertex 90 0.439346 11.5607
      vertex 0 0.666656 11.7472
      vertex 0 0.439346 11.5607
    endloop
  endfacet
  facet normal 0 -0.773151 0.634222
    outer loop
      vertex 0 0.252808 11.3333
      vertex 90 0.439346 11.5607
      vertex 0 0.439346 11.5607
    endloop
  endfacet
  facet normal 0 -0.773151 0.634222
    outer loop
      vertex 90 0.439346 11.5607
      vertex 0 0.252808 11.3333
      vertex 90 0.252808 11.3333
    endloop
  endfacet
  facet normal 0 -0.881883 0.471469
    outer loop
      vertex 0 0.114182 11.074
      vertex 90 0.252808 11.3333
      vertex 0 0.252808 11.3333
    endloop
  endfacet
  facet normal 0 -0.881883 0.471469
    outer loop
      vertex 90 0.252808 11.3333
      vertex 0 0.114182 11.074
      vertex 90 0.114182 11.074
    endloop
  endfacet
  facet normal 0.0322677 -0.956433 0.290164
    outer loop
      vertex 0.000395311 0.0288239 10.7926
      vertex 0 0.114182 11.074
      vertex 0 0.0368805 10.8192
    endloop
  endfacet
  facet normal 0 -0.956944 0.290273
    outer loop
      vertex 0 0.114182 11.074
      vertex 0.000395311 0.0288239 10.7926
      vertex 90 0.114182 11.074
    endloop
  endfacet
  facet normal 0 -0.956944 0.290273
    outer loop
      vertex 89.9996 0.0288239 10.7926
      vertex 90 0.114182 11.074
      vertex 0.000395311 0.0288239 10.7926
    endloop
  endfacet
  facet normal -0.0318898 -0.956444 0.290167
    outer loop
      vertex 90 0.114182 11.074
      vertex 89.9996 0.0288239 10.7926
      vertex 90 0.0368805 10.8192
    endloop
  endfacet
  facet normal -1.74582e-06 -0.995182 0.0980498
    outer loop
      vertex 0.0368652 1.52588e-05 10.5002
      vertex 0.000395311 0.0288239 10.7926
      vertex 0.00172424 0.0017395 10.5177
    endloop
  endfacet
  facet normal 0 -0.995181 0.09805
    outer loop
      vertex 0.000395311 0.0288239 10.7926
      vertex 0.0368652 1.52588e-05 10.5002
      vertex 89.9996 0.0288239 10.7926
    endloop
  endfacet
  facet normal 0 -0.995181 0.09805
    outer loop
      vertex 89.9631 1.52588e-05 10.5002
      vertex 89.9996 0.0288239 10.7926
      vertex 0.0368652 1.52588e-05 10.5002
    endloop
  endfacet
  facet normal 1.74279e-06 -0.995182 0.0980498
    outer loop
      vertex 89.9996 0.0288239 10.7926
      vertex 89.9631 1.52588e-05 10.5002
      vertex 89.9983 0.0017395 10.5177
    endloop
  endfacet
  facet normal 0.0489255 -0.998802 0
    outer loop
      vertex 89.9983 0.0017395 0
      vertex 89.9631 1.52588e-05 10.5002
      vertex 89.9631 1.52588e-05 0
    endloop
  endfacet
  facet normal 0.0489255 -0.998802 0
    outer loop
      vertex 89.9631 1.52588e-05 10.5002
      vertex 89.9983 0.0017395 0
      vertex 89.9983 0.0017395 10.5177
    endloop
  endfacet
  facet normal -0.998798 -0.0490074 0
    outer loop
      vertex 0.00172424 0.0017395 10.5177
      vertex 0 0.0368805 10.8192
      vertex 0 0.0368805 0
    endloop
  endfacet
  facet normal -0.998798 -0.0490074 -0
    outer loop
      vertex 0.00172424 0.0017395 10.5177
      vertex 0 0.0368805 0
      vertex 0.00172424 0.0017395 0
    endloop
  endfacet
  facet normal -0.998798 -0.049008 7.47718e-08
    outer loop
      vertex 0 0.0368805 10.8192
      vertex 0.00172424 0.0017395 10.5177
      vertex 0.000395311 0.0288239 10.7926
    endloop
  endfacet
  facet normal -0.0490075 -0.998798 0
    outer loop
      vertex 0.00172424 0.0017395 0
      vertex 0.0368652 1.52588e-05 10.5002
      vertex 0.00172424 0.0017395 10.5177
    endloop
  endfacet
  facet normal -0.0490075 -0.998798 -0
    outer loop
      vertex 0.0368652 1.52588e-05 10.5002
      vertex 0.00172424 0.0017395 0
      vertex 0.0368652 1.52588e-05 0
    endloop
  endfacet
  facet normal 0 -1 0
    outer loop
      vertex 0.0368652 1.52588e-05 10.5002
      vertex 2.39999 1.52588e-05 9.59999
      vertex 89.9631 1.52588e-05 10.5002
    endloop
  endfacet
  facet normal 0 -1 0
    outer loop
      vertex 0.0368652 1.52588e-05 0
      vertex 2.39999 1.52588e-05 9.59999
      vertex 0.0368652 1.52588e-05 10.5002
    endloop
  endfacet
  facet normal 0 -1 -0
    outer loop
      vertex 2.39999 1.52588e-05 9.59999
      vertex 0.0368652 1.52588e-05 0
      vertex 2.39999 1.52588e-05 0
    endloop
  endfacet
  facet normal 0 -1 0
    outer loop
      vertex 87.6 1.52588e-05 9.59999
      vertex 89.9631 1.52588e-05 10.5002
      vertex 2.39999 1.52588e-05 9.59999
    endloop
  endfacet
  facet normal 0 -1 0
    outer loop
      vertex 89.9631 1.52588e-05 0
      vertex 87.6 1.52588e-05 9.59999
      vertex 87.6 1.52588e-05 0
    endloop
  endfacet
  facet normal 0 -1 0
    outer loop
      vertex 87.6 1.52588e-05 9.59999
      vertex 89.9631 1.52588e-05 0
      vertex 89.9631 1.52588e-05 10.5002
    endloop
  endfacet
  facet normal 0.99873 -0.0503805 0.000240728
    outer loop
      vertex 89.9983 0.0017395 10.5177
      vertex 90 0.0368805 10.8192
      vertex 89.9996 0.0288239 10.7926
    endloop
  endfacet
  facet normal 0.998832 -0.04832 0
    outer loop
      vertex 90 0.0368805 10.8192
      vertex 89.9983 0.0017395 10.5177
      vertex 90 0.0368805 0
    endloop
  endfacet
  facet normal 0.998832 -0.04832 0
    outer loop
      vertex 90 0.0368805 0
      vertex 89.9983 0.0017395 10.5177
      vertex 89.9983 0.0017395 0
    endloop
  endfacet
  facet normal 1 0 0
    outer loop
      vertex 2.39999 1.52588e-05 9.59999
      vertex 2.39999 1.52588e-05 0
      vertex 2.39999 6.722 0
    endloop
  endfacet
  facet normal -1 0 0
    outer loop
      vertex 87.6 1.52588e-05 0
      vertex 87.6 1.52588e-05 9.59999
      vertex 87.6 6.722 0
    endloop
  endfacet
  facet normal 0 -0.819152 -0.573576
    outer loop
      vertex 2.39999 6.722 0
      vertex 87.6 1.52588e-05 9.59999
      vertex 2.39999 1.52588e-05 9.59999
    endloop
  endfacet
  facet normal 0 -0.819152 -0.573576
    outer loop
      vertex 87.6 1.52588e-05 9.59999
      vertex 2.39999 6.722 0
      vertex 87.6 6.722 0
    endloop
  endfacet
  facet normal 0 0 -1
    outer loop
      vertex 0 0.0368805 0
      vertex 2.39999 1.52588e-05 0
      vertex 0.0368652 1.52588e-05 0
    endloop
  endfacet
  facet normal 0 0 -1
    outer loop
      vertex 89.9631 1.52588e-05 0
      vertex 90 0.0368805 0
      vertex 89.9983 0.0017395 0
    endloop
  endfacet
  facet normal 0 0 -1
    outer loop
      vertex 87.6 1.52588e-05 0
      vertex 90 0.0368805 0
      vertex 89.9631 1.52588e-05 0
    endloop
  endfacet
  facet normal -0 0 -1
    outer loop
      vertex 90 0.0368805 0
      vertex 87.6 1.52588e-05 0
      vertex 87.6 6.722 0
    endloop
  endfacet
  facet normal 0 0 -1
    outer loop
      vertex 90 0.0368805 0
      vertex 87.6 6.722 0
      vertex 90 20.5 0
    endloop
  endfacet
  facet normal 0 0 -1
    outer loop
      vertex 2.39999 6.722 0
      vertex 90 20.5 0
      vertex 87.6 6.722 0
    endloop
  endfacet
  facet normal 0 0 -1
    outer loop
      vertex 0 0.0368805 0
      vertex 0.0368652 1.52588e-05 0
      vertex 0.00172424 0.0017395 0
    endloop
  endfacet
  facet normal 0 0 -1
    outer loop
      vertex 2.39999 1.52588e-05 0
      vertex 0 0.0368805 0
      vertex 2.39999 6.722 0
    endloop
  endfacet
  facet normal 0 0 -1
    outer loop
      vertex 2.39999 6.722 0
      vertex 0 20.5 0
      vertex 90 20.5 0
    endloop
  endfacet
  facet normal 0 0 -1
    outer loop
      vertex 0 20.5 0
      vertex 2.39999 6.722 0
      vertex 0 0.0368805 0
    endloop
  endfacet
endsolid OpenSCAD_Model
