solid OpenSCAD_Model
  facet normal 0 0 1
    outer loop
      vertex 6.79887 56.0067 2.5
      vertex 6.79999 55.9901 2.5
      vertex 6.79935 56.0031 2.5
    endloop
  endfacet
  facet normal 0 0 1
    outer loop
      vertex 86.3901 66 2.5
      vertex 86.4 65.9901 2.5
      vertex 86.3996 65.9995 2.5
    endloop
  endfacet
  facet normal 0 0 1
    outer loop
      vertex 83.2 48 2.5
      vertex 88.893 48.007 2.5
      vertex 86.5172 50.3828 2.5
    endloop
  endfacet
  facet normal 0 0 1
    outer loop
      vertex 83.2 48 2.5
      vertex 86.5172 50.3828 2.5
      vertex 86.4908 50.4119 2.5
    endloop
  endfacet
  facet normal 0 0 1
    outer loop
      vertex 83.2 48 2.5
      vertex 86.4908 50.4119 2.5
      vertex 86.4674 50.4435 2.5
    endloop
  endfacet
  facet normal 0 0 1
    outer loop
      vertex 83.2 48 2.5
      vertex 86.4674 50.4435 2.5
      vertex 86.4472 50.4771 2.5
    endloop
  endfacet
  facet normal 0 0 1
    outer loop
      vertex 83.2 48 2.5
      vertex 86.4472 50.4771 2.5
      vertex 86.4305 50.5126 2.5
    endloop
  endfacet
  facet normal 0 0 1
    outer loop
      vertex 83.2 48 2.5
      vertex 86.4305 50.5126 2.5
      vertex 86.4172 50.5496 2.5
    endloop
  endfacet
  facet normal 0 0 1
    outer loop
      vertex 83.2 48 2.5
      vertex 86.4172 50.5496 2.5
      vertex 86.4077 50.5876 2.5
    endloop
  endfacet
  facet normal -0 0 1
    outer loop
      vertex 84.2131 66 2.5
      vertex 86.4 65.9901 2.5
      vertex 86.3901 66 2.5
    endloop
  endfacet
  facet normal 0 0 1
    outer loop
      vertex 86.4 65.9901 2.5
      vertex 84.2131 66 2.5
      vertex 84.1984 65.9903 2.5
    endloop
  endfacet
  facet normal 0 0 1
    outer loop
      vertex 86.4 65.9901 2.5
      vertex 83.2011 60.0067 2.5
      vertex 83.2 59.9901 2.5
    endloop
  endfacet
  facet normal 0 0 1
    outer loop
      vertex 84.1984 65.9903 2.5
      vertex 84.2131 66 2.5
      vertex 84.2003 65.9992 2.5
    endloop
  endfacet
  facet normal 0 0 1
    outer loop
      vertex 86.4 65.9901 2.5
      vertex 84.1984 65.9903 2.5
      vertex 83.2011 60.0067 2.5
    endloop
  endfacet
  facet normal 0 0 1
    outer loop
      vertex 86.4 65.9901 2.5
      vertex 83.2 59.9901 2.5
      vertex 86.4 50.6657 2.5
    endloop
  endfacet
  facet normal 0 0 1
    outer loop
      vertex 83.2 48 2.5
      vertex 86.4 50.6657 2.5
      vertex 83.2 59.9901 2.5
    endloop
  endfacet
  facet normal 0 0 1
    outer loop
      vertex 86.4 50.6657 2.5
      vertex 83.2 48 2.5
      vertex 86.4019 50.6265 2.5
    endloop
  endfacet
  facet normal 0 0 1
    outer loop
      vertex 83.2 59.9901 2.5
      vertex 83.2011 60.0067 2.5
      vertex 83.2007 60.0031 2.5
    endloop
  endfacet
  facet normal 0 0 1
    outer loop
      vertex 86.4019 50.6265 2.5
      vertex 83.2 48 2.5
      vertex 86.4077 50.5876 2.5
    endloop
  endfacet
  facet normal 0 0 1
    outer loop
      vertex 88.893 48.007 2.5
      vertex 83.2 48 2.5
      vertex 87.6 43.4578 2.5
    endloop
  endfacet
  facet normal -0 0 1
    outer loop
      vertex 6.79999 48 2.5
      vertex 87.6 43.4578 2.5
      vertex 83.2 48 2.5
    endloop
  endfacet
  facet normal 0 0 1
    outer loop
      vertex 6.79999 55.9901 2.5
      vertex 6.79887 56.0067 2.5
      vertex 3.59999 50.6657 2.5
    endloop
  endfacet
  facet normal -0 0 1
    outer loop
      vertex 3.59999 61.9901 2.5
      vertex 6.79887 56.0067 2.5
      vertex 5.80161 61.9903 2.5
    endloop
  endfacet
  facet normal 0 0 1
    outer loop
      vertex 5.78687 62 2.5
      vertex 5.80161 61.9903 2.5
      vertex 5.79967 61.9992 2.5
    endloop
  endfacet
  facet normal 0 0 1
    outer loop
      vertex 3.59999 61.9901 2.5
      vertex 5.80161 61.9903 2.5
      vertex 5.78687 62 2.5
    endloop
  endfacet
  facet normal 0 0 1
    outer loop
      vertex 3.59999 61.9901 2.5
      vertex 5.78687 62 2.5
      vertex 3.60994 62 2.5
    endloop
  endfacet
  facet normal 0 0 1
    outer loop
      vertex 3.59999 61.9901 2.5
      vertex 3.60994 62 2.5
      vertex 3.60045 61.9995 2.5
    endloop
  endfacet
  facet normal 0 0 1
    outer loop
      vertex 6.79887 56.0067 2.5
      vertex 3.59999 61.9901 2.5
      vertex 3.59999 50.6657 2.5
    endloop
  endfacet
  facet normal 0 0 1
    outer loop
      vertex 6.79999 55.9901 2.5
      vertex 3.59999 50.6657 2.5
      vertex 6.79999 48 2.5
    endloop
  endfacet
  facet normal -0 0 1
    outer loop
      vertex 3.59807 50.6265 2.5
      vertex 6.79999 48 2.5
      vertex 3.59999 50.6657 2.5
    endloop
  endfacet
  facet normal -0 0 1
    outer loop
      vertex 3.59232 50.5876 2.5
      vertex 6.79999 48 2.5
      vertex 3.59807 50.6265 2.5
    endloop
  endfacet
  facet normal -0 0 1
    outer loop
      vertex 3.58278 50.5496 2.5
      vertex 6.79999 48 2.5
      vertex 3.59232 50.5876 2.5
    endloop
  endfacet
  facet normal -0 0 1
    outer loop
      vertex 3.56955 50.5126 2.5
      vertex 6.79999 48 2.5
      vertex 3.58278 50.5496 2.5
    endloop
  endfacet
  facet normal -0 0 1
    outer loop
      vertex 3.55276 50.4771 2.5
      vertex 6.79999 48 2.5
      vertex 3.56955 50.5126 2.5
    endloop
  endfacet
  facet normal -0 0 1
    outer loop
      vertex 3.53258 50.4435 2.5
      vertex 6.79999 48 2.5
      vertex 3.55276 50.4771 2.5
    endloop
  endfacet
  facet normal -0 0 1
    outer loop
      vertex 3.5092 50.4119 2.5
      vertex 6.79999 48 2.5
      vertex 3.53258 50.4435 2.5
    endloop
  endfacet
  facet normal -0 0 1
    outer loop
      vertex 3.48283 50.3828 2.5
      vertex 6.79999 48 2.5
      vertex 3.5092 50.4119 2.5
    endloop
  endfacet
  facet normal 0 0 1
    outer loop
      vertex 6.79999 48 2.5
      vertex 2.39999 43.4578 2.5
      vertex 87.6 43.4578 2.5
    endloop
  endfacet
  facet normal -0 0 1
    outer loop
      vertex 1.10698 48.007 2.5
      vertex 6.79999 48 2.5
      vertex 3.48283 50.3828 2.5
    endloop
  endfacet
  facet normal -0 0 1
    outer loop
      vertex 1.10064 48 2.5
      vertex 2.39999 43.4578 2.5
      vertex 1.10698 48.007 2.5
    endloop
  endfacet
  facet normal 0 0 1
    outer loop
      vertex 6.79999 48 2.5
      vertex 1.10698 48.007 2.5
      vertex 2.39999 43.4578 2.5
    endloop
  endfacet
  facet normal 0 0 1
    outer loop
      vertex 87.6 43.4578 2.5
      vertex 90 48 2.5
      vertex 88.8994 48 2.5
    endloop
  endfacet
  facet normal 0 0 1
    outer loop
      vertex 87.6 43.4578 2.5
      vertex 88.8994 48 2.5
      vertex 88.893 48.007 2.5
    endloop
  endfacet
  facet normal 0 0 1
    outer loop
      vertex 90 48 2.5
      vertex 87.6 43.4578 2.5
      vertex 90 3 2.5
    endloop
  endfacet
  facet normal 0 0 1
    outer loop
      vertex 87.6 2.4 2.5
      vertex 90 3 2.5
      vertex 87.6 43.4578 2.5
    endloop
  endfacet
  facet normal -0 0 1
    outer loop
      vertex 87.6 2.4 2.5
      vertex 87 0 2.5
      vertex 90 3 2.5
    endloop
  endfacet
  facet normal 0 0 1
    outer loop
      vertex 87.6 2.4 2.5
      vertex 3 0 2.5
      vertex 87 0 2.5
    endloop
  endfacet
  facet normal -0 0 1
    outer loop
      vertex 2.39999 2.4 2.5
      vertex 3 0 2.5
      vertex 87.6 2.4 2.5
    endloop
  endfacet
  facet normal -0 0 1
    outer loop
      vertex 0 48 2.5
      vertex 2.39999 43.4578 2.5
      vertex 1.10064 48 2.5
    endloop
  endfacet
  facet normal 0 0 1
    outer loop
      vertex 2.39999 43.4578 2.5
      vertex 0 48 2.5
      vertex 0 3 2.5
    endloop
  endfacet
  facet normal 0 0 1
    outer loop
      vertex 2.39999 2.4 2.5
      vertex 0 3 2.5
      vertex 3 0 2.5
    endloop
  endfacet
  facet normal 0 0 1
    outer loop
      vertex 2.39999 43.4578 2.5
      vertex 0 3 2.5
      vertex 2.39999 2.4 2.5
    endloop
  endfacet
  facet normal 1 -0 0
    outer loop
      vertex 6.79999 48 2.5
      vertex 6.79999 55.9901 0
      vertex 6.79999 55.9901 2.5
    endloop
  endfacet
  facet normal 1 0 0
    outer loop
      vertex 6.79999 55.9901 0
      vertex 6.79999 48 2.5
      vertex 6.79999 48 0
    endloop
  endfacet
  facet normal 0.99879 0.0491712 0
    outer loop
      vertex 6.79999 55.9901 2.5
      vertex 6.79935 56.0031 0
      vertex 6.79935 56.0031 2.5
    endloop
  endfacet
  facet normal 0.99879 0.0491712 0
    outer loop
      vertex 6.79935 56.0031 0
      vertex 6.79999 55.9901 2.5
      vertex 6.79999 55.9901 0
    endloop
  endfacet
  facet normal 0.991228 0.132164 0
    outer loop
      vertex 6.79935 56.0031 2.5
      vertex 6.79887 56.0067 0
      vertex 6.79887 56.0067 2.5
    endloop
  endfacet
  facet normal 0.991228 0.132164 0
    outer loop
      vertex 6.79887 56.0067 0
      vertex 6.79935 56.0031 2.5
      vertex 6.79935 56.0031 0
    endloop
  endfacet
  facet normal 0.986394 0.164398 0
    outer loop
      vertex 6.79887 56.0067 2.5
      vertex 5.80161 61.9903 0
      vertex 5.80161 61.9903 2.5
    endloop
  endfacet
  facet normal 0.986394 0.164398 0
    outer loop
      vertex 5.80161 61.9903 0
      vertex 6.79887 56.0067 2.5
      vertex 6.79887 56.0067 0
    endloop
  endfacet
  facet normal 0.977057 0.212977 0
    outer loop
      vertex 5.80161 61.9903 2.5
      vertex 5.79967 61.9992 0
      vertex 5.79967 61.9992 2.5
    endloop
  endfacet
  facet normal 0.977057 0.212977 0
    outer loop
      vertex 5.79967 61.9992 0
      vertex 5.80161 61.9903 2.5
      vertex 5.80161 61.9903 0
    endloop
  endfacet
  facet normal 0.0623783 0.998053 -0
    outer loop
      vertex 5.79967 61.9992 0
      vertex 5.78687 62 2.5
      vertex 5.79967 61.9992 2.5
    endloop
  endfacet
  facet normal 0.0623783 0.998053 0
    outer loop
      vertex 5.78687 62 2.5
      vertex 5.79967 61.9992 0
      vertex 5.78687 62 0
    endloop
  endfacet
  facet normal 0 1 -0
    outer loop
      vertex 5.78687 62 0
      vertex 3.60994 62 2.5
      vertex 5.78687 62 2.5
    endloop
  endfacet
  facet normal 0 1 0
    outer loop
      vertex 3.60994 62 2.5
      vertex 5.78687 62 0
      vertex 3.60994 62 0
    endloop
  endfacet
  facet normal -0.0526141 0.998615 0
    outer loop
      vertex 3.60994 62 0
      vertex 3.60045 61.9995 2.5
      vertex 3.60994 62 2.5
    endloop
  endfacet
  facet normal -0.0526141 0.998615 0
    outer loop
      vertex 3.60045 61.9995 2.5
      vertex 3.60994 62 0
      vertex 3.60045 61.9995 0
    endloop
  endfacet
  facet normal -0.998805 0.0488777 0
    outer loop
      vertex 3.59999 61.9901 0
      vertex 3.60045 61.9995 2.5
      vertex 3.60045 61.9995 0
    endloop
  endfacet
  facet normal -0.998805 0.0488777 0
    outer loop
      vertex 3.60045 61.9995 2.5
      vertex 3.59999 61.9901 0
      vertex 3.59999 61.9901 2.5
    endloop
  endfacet
  facet normal -1 0 0
    outer loop
      vertex 3.59999 50.6657 0
      vertex 3.59999 61.9901 2.5
      vertex 3.59999 61.9901 0
    endloop
  endfacet
  facet normal -1 -0 0
    outer loop
      vertex 3.59999 61.9901 2.5
      vertex 3.59999 50.6657 0
      vertex 3.59999 50.6657 2.5
    endloop
  endfacet
  facet normal -0.998803 0.0489209 0
    outer loop
      vertex 3.59807 50.6265 0
      vertex 3.59999 50.6657 2.5
      vertex 3.59999 50.6657 0
    endloop
  endfacet
  facet normal -0.998803 0.0489209 0
    outer loop
      vertex 3.59999 50.6657 2.5
      vertex 3.59807 50.6265 0
      vertex 3.59807 50.6265 2.5
    endloop
  endfacet
  facet normal -0.989251 0.146226 0
    outer loop
      vertex 3.59232 50.5876 0
      vertex 3.59807 50.6265 2.5
      vertex 3.59807 50.6265 0
    endloop
  endfacet
  facet normal -0.989251 0.146226 0
    outer loop
      vertex 3.59807 50.6265 2.5
      vertex 3.59232 50.5876 0
      vertex 3.59232 50.5876 2.5
    endloop
  endfacet
  facet normal -0.969902 0.243496 0
    outer loop
      vertex 3.58278 50.5496 0
      vertex 3.59232 50.5876 2.5
      vertex 3.59232 50.5876 0
    endloop
  endfacet
  facet normal -0.969902 0.243496 0
    outer loop
      vertex 3.59232 50.5876 2.5
      vertex 3.58278 50.5496 0
      vertex 3.58278 50.5496 2.5
    endloop
  endfacet
  facet normal -0.941615 0.336691 0
    outer loop
      vertex 3.56955 50.5126 0
      vertex 3.58278 50.5496 2.5
      vertex 3.58278 50.5496 0
    endloop
  endfacet
  facet normal -0.941615 0.336691 0
    outer loop
      vertex 3.58278 50.5496 2.5
      vertex 3.56955 50.5126 0
      vertex 3.56955 50.5126 2.5
    endloop
  endfacet
  facet normal -0.903992 0.42755 0
    outer loop
      vertex 3.55276 50.4771 0
      vertex 3.56955 50.5126 2.5
      vertex 3.56955 50.5126 0
    endloop
  endfacet
  facet normal -0.903992 0.42755 0
    outer loop
      vertex 3.56955 50.5126 2.5
      vertex 3.55276 50.4771 0
      vertex 3.55276 50.4771 2.5
    endloop
  endfacet
  facet normal -0.857268 0.514871 0
    outer loop
      vertex 3.53258 50.4435 0
      vertex 3.55276 50.4771 2.5
      vertex 3.55276 50.4771 0
    endloop
  endfacet
  facet normal -0.857268 0.514871 0
    outer loop
      vertex 3.55276 50.4771 2.5
      vertex 3.53258 50.4435 0
      vertex 3.53258 50.4435 2.5
    endloop
  endfacet
  facet normal -0.803891 0.594777 0
    outer loop
      vertex 3.5092 50.4119 0
      vertex 3.53258 50.4435 2.5
      vertex 3.53258 50.4435 0
    endloop
  endfacet
  facet normal -0.803891 0.594777 0
    outer loop
      vertex 3.53258 50.4435 2.5
      vertex 3.5092 50.4119 0
      vertex 3.5092 50.4119 2.5
    endloop
  endfacet
  facet normal -0.741011 0.671493 0
    outer loop
      vertex 3.48283 50.3828 0
      vertex 3.5092 50.4119 2.5
      vertex 3.5092 50.4119 0
    endloop
  endfacet
  facet normal -0.741011 0.671493 0
    outer loop
      vertex 3.5092 50.4119 2.5
      vertex 3.48283 50.3828 0
      vertex 3.48283 50.3828 2.5
    endloop
  endfacet
  facet normal -0.707099 0.707114 0
    outer loop
      vertex 1.10698 48.007 0
      vertex 3.48283 50.3828 2.5
      vertex 3.48283 50.3828 0
    endloop
  endfacet
  facet normal -0.707099 0.707114 0
    outer loop
      vertex 3.48283 50.3828 2.5
      vertex 1.10698 48.007 0
      vertex 1.10698 48.007 2.5
    endloop
  endfacet
  facet normal -0.741184 0.671301 0
    outer loop
      vertex 1.10064 48 0
      vertex 1.10698 48.007 2.5
      vertex 1.10698 48.007 0
    endloop
  endfacet
  facet normal -0.741184 0.671301 0
    outer loop
      vertex 1.10698 48.007 2.5
      vertex 1.10064 48 0
      vertex 1.10064 48 2.5
    endloop
  endfacet
  facet normal -1 0 0
    outer loop
      vertex 83.2 48 0
      vertex 83.2 59.9901 2.5
      vertex 83.2 59.9901 0
    endloop
  endfacet
  facet normal -1 -0 0
    outer loop
      vertex 83.2 59.9901 2.5
      vertex 83.2 48 0
      vertex 83.2 48 2.5
    endloop
  endfacet
  facet normal -0.998553 0.0537683 0
    outer loop
      vertex 83.2 59.9901 0
      vertex 83.2007 60.0031 2.5
      vertex 83.2007 60.0031 0
    endloop
  endfacet
  facet normal -0.998553 0.0537683 0
    outer loop
      vertex 83.2007 60.0031 2.5
      vertex 83.2 59.9901 0
      vertex 83.2 59.9901 2.5
    endloop
  endfacet
  facet normal -0.993884 0.110432 0
    outer loop
      vertex 83.2007 60.0031 0
      vertex 83.2011 60.0067 2.5
      vertex 83.2011 60.0067 0
    endloop
  endfacet
  facet normal -0.993884 0.110432 0
    outer loop
      vertex 83.2011 60.0067 2.5
      vertex 83.2007 60.0031 0
      vertex 83.2007 60.0031 2.5
    endloop
  endfacet
  facet normal -0.986393 0.164404 0
    outer loop
      vertex 83.2011 60.0067 0
      vertex 84.1984 65.9903 2.5
      vertex 84.1984 65.9903 0
    endloop
  endfacet
  facet normal -0.986393 0.164404 0
    outer loop
      vertex 84.1984 65.9903 2.5
      vertex 83.2011 60.0067 0
      vertex 83.2011 60.0067 2.5
    endloop
  endfacet
  facet normal -0.977963 0.208779 0
    outer loop
      vertex 84.1984 65.9903 0
      vertex 84.2003 65.9992 2.5
      vertex 84.2003 65.9992 0
    endloop
  endfacet
  facet normal -0.977963 0.208779 0
    outer loop
      vertex 84.2003 65.9992 2.5
      vertex 84.1984 65.9903 0
      vertex 84.1984 65.9903 2.5
    endloop
  endfacet
  facet normal -0.0623783 0.998053 0
    outer loop
      vertex 84.2131 66 0
      vertex 84.2003 65.9992 2.5
      vertex 84.2131 66 2.5
    endloop
  endfacet
  facet normal -0.0623783 0.998053 0
    outer loop
      vertex 84.2003 65.9992 2.5
      vertex 84.2131 66 0
      vertex 84.2003 65.9992 0
    endloop
  endfacet
  facet normal 0 1 -0
    outer loop
      vertex 86.3901 66 0
      vertex 84.2131 66 2.5
      vertex 86.3901 66 2.5
    endloop
  endfacet
  facet normal 0 1 0
    outer loop
      vertex 84.2131 66 2.5
      vertex 86.3901 66 0
      vertex 84.2131 66 0
    endloop
  endfacet
  facet normal 0.0525588 0.998618 -0
    outer loop
      vertex 86.3996 65.9995 0
      vertex 86.3901 66 2.5
      vertex 86.3996 65.9995 2.5
    endloop
  endfacet
  facet normal 0.0525588 0.998618 0
    outer loop
      vertex 86.3901 66 2.5
      vertex 86.3996 65.9995 0
      vertex 86.3901 66 0
    endloop
  endfacet
  facet normal 0.999096 0.0425147 0
    outer loop
      vertex 86.4 65.9901 2.5
      vertex 86.3996 65.9995 0
      vertex 86.3996 65.9995 2.5
    endloop
  endfacet
  facet normal 0.999096 0.0425147 0
    outer loop
      vertex 86.3996 65.9995 0
      vertex 86.4 65.9901 2.5
      vertex 86.4 65.9901 0
    endloop
  endfacet
  facet normal 1 -0 0
    outer loop
      vertex 86.4 50.6657 2.5
      vertex 86.4 65.9901 0
      vertex 86.4 65.9901 2.5
    endloop
  endfacet
  facet normal 1 0 0
    outer loop
      vertex 86.4 65.9901 0
      vertex 86.4 50.6657 2.5
      vertex 86.4 50.6657 0
    endloop
  endfacet
  facet normal 0.998827 0.0484126 0
    outer loop
      vertex 86.4019 50.6265 2.5
      vertex 86.4 50.6657 0
      vertex 86.4 50.6657 2.5
    endloop
  endfacet
  facet normal 0.998827 0.0484126 0
    outer loop
      vertex 86.4 50.6657 0
      vertex 86.4019 50.6265 2.5
      vertex 86.4019 50.6265 0
    endloop
  endfacet
  facet normal 0.989067 0.14747 0
    outer loop
      vertex 86.4077 50.5876 2.5
      vertex 86.4019 50.6265 0
      vertex 86.4019 50.6265 2.5
    endloop
  endfacet
  facet normal 0.989067 0.14747 0
    outer loop
      vertex 86.4019 50.6265 0
      vertex 86.4077 50.5876 2.5
      vertex 86.4077 50.5876 0
    endloop
  endfacet
  facet normal 0.970143 0.242536 0
    outer loop
      vertex 86.4172 50.5496 2.5
      vertex 86.4077 50.5876 0
      vertex 86.4077 50.5876 2.5
    endloop
  endfacet
  facet normal 0.970143 0.242536 0
    outer loop
      vertex 86.4077 50.5876 0
      vertex 86.4172 50.5496 2.5
      vertex 86.4172 50.5496 0
    endloop
  endfacet
  facet normal 0.941049 0.338269 0
    outer loop
      vertex 86.4305 50.5126 2.5
      vertex 86.4172 50.5496 0
      vertex 86.4172 50.5496 2.5
    endloop
  endfacet
  facet normal 0.941049 0.338269 0
    outer loop
      vertex 86.4172 50.5496 0
      vertex 86.4305 50.5126 2.5
      vertex 86.4305 50.5126 0
    endloop
  endfacet
  facet normal 0.904876 0.425674 0
    outer loop
      vertex 86.4472 50.4771 2.5
      vertex 86.4305 50.5126 0
      vertex 86.4305 50.5126 2.5
    endloop
  endfacet
  facet normal 0.904876 0.425674 0
    outer loop
      vertex 86.4305 50.5126 0
      vertex 86.4472 50.4771 2.5
      vertex 86.4472 50.4771 0
    endloop
  endfacet
  facet normal 0.857042 0.515246 0
    outer loop
      vertex 86.4674 50.4435 2.5
      vertex 86.4472 50.4771 0
      vertex 86.4472 50.4771 2.5
    endloop
  endfacet
  facet normal 0.857042 0.515246 0
    outer loop
      vertex 86.4472 50.4771 0
      vertex 86.4674 50.4435 2.5
      vertex 86.4674 50.4435 0
    endloop
  endfacet
  facet normal 0.803647 0.595106 0
    outer loop
      vertex 86.4908 50.4119 2.5
      vertex 86.4674 50.4435 0
      vertex 86.4674 50.4435 2.5
    endloop
  endfacet
  facet normal 0.803647 0.595106 0
    outer loop
      vertex 86.4674 50.4435 0
      vertex 86.4908 50.4119 2.5
      vertex 86.4908 50.4119 0
    endloop
  endfacet
  facet normal 0.740631 0.671912 0
    outer loop
      vertex 86.5172 50.3828 2.5
      vertex 86.4908 50.4119 0
      vertex 86.4908 50.4119 2.5
    endloop
  endfacet
  facet normal 0.740631 0.671912 0
    outer loop
      vertex 86.4908 50.4119 0
      vertex 86.5172 50.3828 2.5
      vertex 86.5172 50.3828 0
    endloop
  endfacet
  facet normal 0.707107 0.707107 0
    outer loop
      vertex 88.893 48.007 2.5
      vertex 86.5172 50.3828 0
      vertex 86.5172 50.3828 2.5
    endloop
  endfacet
  facet normal 0.707107 0.707107 0
    outer loop
      vertex 86.5172 50.3828 0
      vertex 88.893 48.007 2.5
      vertex 88.893 48.007 0
    endloop
  endfacet
  facet normal 0.738029 0.674769 0
    outer loop
      vertex 88.8994 48 2.5
      vertex 88.893 48.007 0
      vertex 88.893 48.007 2.5
    endloop
  endfacet
  facet normal 0.738029 0.674769 0
    outer loop
      vertex 88.893 48.007 0
      vertex 88.8994 48 2.5
      vertex 88.8994 48 0
    endloop
  endfacet
  facet normal -1 0 0
    outer loop
      vertex 0 3 0
      vertex 0 48 2.5
      vertex 0 48 0
    endloop
  endfacet
  facet normal -1 -0 0
    outer loop
      vertex 0 48 2.5
      vertex 0 3 0
      vertex 0 3 2.5
    endloop
  endfacet
  facet normal 1 -0 0
    outer loop
      vertex 90 3 2.5
      vertex 90 48 0
      vertex 90 48 2.5
    endloop
  endfacet
  facet normal 1 0 0
    outer loop
      vertex 90 48 0
      vertex 90 3 2.5
      vertex 90 3 0
    endloop
  endfacet
  facet normal 0 1 -0
    outer loop
      vertex 1.10064 48 0
      vertex 0 48 2.5
      vertex 1.10064 48 2.5
    endloop
  endfacet
  facet normal 0 1 0
    outer loop
      vertex 0 48 2.5
      vertex 1.10064 48 0
      vertex 0 48 0
    endloop
  endfacet
  facet normal 0 1 -0
    outer loop
      vertex 90 48 0
      vertex 88.8994 48 2.5
      vertex 90 48 2.5
    endloop
  endfacet
  facet normal 0 1 0
    outer loop
      vertex 88.8994 48 2.5
      vertex 90 48 0
      vertex 88.8994 48 0
    endloop
  endfacet
  facet normal 0 1 -0
    outer loop
      vertex 83.2 48 0
      vertex 6.79999 48 2.5
      vertex 83.2 48 2.5
    endloop
  endfacet
  facet normal 0 1 0
    outer loop
      vertex 6.79999 48 2.5
      vertex 83.2 48 0
      vertex 6.79999 48 0
    endloop
  endfacet
  facet normal 0 -1 0
    outer loop
      vertex 3 0 0
      vertex 87 0 2.5
      vertex 3 0 2.5
    endloop
  endfacet
  facet normal 0 -1 -0
    outer loop
      vertex 87 0 2.5
      vertex 3 0 0
      vertex 87 0 0
    endloop
  endfacet
  facet normal 0.707107 -0.707107 0
    outer loop
      vertex 87 0 2.5
      vertex 90 3 0
      vertex 90 3 2.5
    endloop
  endfacet
  facet normal 0.707107 -0.707107 0
    outer loop
      vertex 90 3 0
      vertex 87 0 2.5
      vertex 87 0 0
    endloop
  endfacet
  facet normal -0.707107 -0.707107 0
    outer loop
      vertex 3 0 0
      vertex 0 3 2.5
      vertex 0 3 0
    endloop
  endfacet
  facet normal -0.707107 -0.707107 0
    outer loop
      vertex 0 3 2.5
      vertex 3 0 0
      vertex 3 0 2.5
    endloop
  endfacet
  facet normal 1 -0 0
    outer loop
      vertex 2.39999 2.4 2.5
      vertex 2.39999 39.8874 0
      vertex 2.39999 43.4578 2.5
    endloop
  endfacet
  facet normal 1 0 0
    outer loop
      vertex 2.39999 39.8874 0
      vertex 2.39999 2.4 2.5
      vertex 2.39999 2.4 0
    endloop
  endfacet
  facet normal -1 0 0
    outer loop
      vertex 87.6 2.4 2.5
      vertex 87.6 39.8874 0
      vertex 87.6 2.4 0
    endloop
  endfacet
  facet normal -1 0 0
    outer loop
      vertex 87.6 39.8874 0
      vertex 87.6 2.4 2.5
      vertex 87.6 43.4578 2.5
    endloop
  endfacet
  facet normal 0 1 -0
    outer loop
      vertex 87.6 2.4 0
      vertex 2.39999 2.4 2.5
      vertex 87.6 2.4 2.5
    endloop
  endfacet
  facet normal 0 1 0
    outer loop
      vertex 2.39999 2.4 2.5
      vertex 87.6 2.4 0
      vertex 2.39999 2.4 0
    endloop
  endfacet
  facet normal 0 -0.573573 0.819154
    outer loop
      vertex 2.39999 43.4578 2.5
      vertex 87.6 39.8874 0
      vertex 87.6 43.4578 2.5
    endloop
  endfacet
  facet normal 0 -0.573573 0.819154
    outer loop
      vertex 87.6 39.8874 0
      vertex 2.39999 43.4578 2.5
      vertex 2.39999 39.8874 0
    endloop
  endfacet
  facet normal 0 0 -1
    outer loop
      vertex 87.6 39.8874 0
      vertex 90 48 0
      vertex 90 3 0
    endloop
  endfacet
  facet normal -0 0 -1
    outer loop
      vertex 90 48 0
      vertex 87.6 39.8874 0
      vertex 88.8994 48 0
    endloop
  endfacet
  facet normal 0 0 -1
    outer loop
      vertex 87.6 39.8874 0
      vertex 90 3 0
      vertex 87.6 2.4 0
    endloop
  endfacet
  facet normal 0 0 -1
    outer loop
      vertex 87 0 0
      vertex 87.6 2.4 0
      vertex 90 3 0
    endloop
  endfacet
  facet normal 0 0 -1
    outer loop
      vertex 3 0 0
      vertex 87.6 2.4 0
      vertex 87 0 0
    endloop
  endfacet
  facet normal 0 0 -1
    outer loop
      vertex 3 0 0
      vertex 2.39999 2.4 0
      vertex 87.6 2.4 0
    endloop
  endfacet
  facet normal 0 0 -1
    outer loop
      vertex 0 3 0
      vertex 2.39999 39.8874 0
      vertex 2.39999 2.4 0
    endloop
  endfacet
  facet normal 0 0 -1
    outer loop
      vertex 2.39999 39.8874 0
      vertex 1.10064 48 0
      vertex 1.10698 48.007 0
    endloop
  endfacet
  facet normal 0 0 -1
    outer loop
      vertex 0 3 0
      vertex 2.39999 2.4 0
      vertex 3 0 0
    endloop
  endfacet
  facet normal 0 0 -1
    outer loop
      vertex 0 48 0
      vertex 2.39999 39.8874 0
      vertex 0 3 0
    endloop
  endfacet
  facet normal 0 0 -1
    outer loop
      vertex 2.39999 39.8874 0
      vertex 0 48 0
      vertex 1.10064 48 0
    endloop
  endfacet
  facet normal 0 0 -1
    outer loop
      vertex 83.2 48 0
      vertex 88.8994 48 0
      vertex 87.6 39.8874 0
    endloop
  endfacet
  facet normal 0 0 -1
    outer loop
      vertex 88.8994 48 0
      vertex 83.2 48 0
      vertex 88.893 48.007 0
    endloop
  endfacet
  facet normal -0 0 -1
    outer loop
      vertex 88.893 48.007 0
      vertex 83.2 48 0
      vertex 86.5172 50.3828 0
    endloop
  endfacet
  facet normal -0 0 -1
    outer loop
      vertex 86.5172 50.3828 0
      vertex 83.2 48 0
      vertex 86.4908 50.4119 0
    endloop
  endfacet
  facet normal -0 0 -1
    outer loop
      vertex 86.4908 50.4119 0
      vertex 83.2 48 0
      vertex 86.4674 50.4435 0
    endloop
  endfacet
  facet normal -0 0 -1
    outer loop
      vertex 86.4674 50.4435 0
      vertex 83.2 48 0
      vertex 86.4472 50.4771 0
    endloop
  endfacet
  facet normal -0 0 -1
    outer loop
      vertex 86.4472 50.4771 0
      vertex 83.2 48 0
      vertex 86.4305 50.5126 0
    endloop
  endfacet
  facet normal -0 0 -1
    outer loop
      vertex 86.4305 50.5126 0
      vertex 83.2 48 0
      vertex 86.4172 50.5496 0
    endloop
  endfacet
  facet normal -0 0 -1
    outer loop
      vertex 86.4172 50.5496 0
      vertex 83.2 48 0
      vertex 86.4077 50.5876 0
    endloop
  endfacet
  facet normal 0 0 -1
    outer loop
      vertex 83.2 59.9901 0
      vertex 86.4 65.9901 0
      vertex 86.4 50.6657 0
    endloop
  endfacet
  facet normal 0 -0 -1
    outer loop
      vertex 83.2011 60.0067 0
      vertex 86.4 65.9901 0
      vertex 83.2 59.9901 0
    endloop
  endfacet
  facet normal 0 -0 -1
    outer loop
      vertex 84.1984 65.9903 0
      vertex 86.4 65.9901 0
      vertex 83.2011 60.0067 0
    endloop
  endfacet
  facet normal 0 0 -1
    outer loop
      vertex 83.2 48 0
      vertex 86.4 50.6657 0
      vertex 86.4019 50.6265 0
    endloop
  endfacet
  facet normal -0 0 -1
    outer loop
      vertex 86.4077 50.5876 0
      vertex 83.2 48 0
      vertex 86.4019 50.6265 0
    endloop
  endfacet
  facet normal 0 0 -1
    outer loop
      vertex 86.4 65.9901 0
      vertex 86.3901 66 0
      vertex 86.3996 65.9995 0
    endloop
  endfacet
  facet normal 0 0 -1
    outer loop
      vertex 84.2131 66 0
      vertex 84.1984 65.9903 0
      vertex 84.2003 65.9992 0
    endloop
  endfacet
  facet normal 0 -0 -1
    outer loop
      vertex 84.2131 66 0
      vertex 86.4 65.9901 0
      vertex 84.1984 65.9903 0
    endloop
  endfacet
  facet normal 0 0 -1
    outer loop
      vertex 86.4 65.9901 0
      vertex 84.2131 66 0
      vertex 86.3901 66 0
    endloop
  endfacet
  facet normal -0 0 -1
    outer loop
      vertex 86.4 50.6657 0
      vertex 83.2 48 0
      vertex 83.2 59.9901 0
    endloop
  endfacet
  facet normal 0 0 -1
    outer loop
      vertex 87.6 39.8874 0
      vertex 6.79999 48 0
      vertex 83.2 48 0
    endloop
  endfacet
  facet normal 0 0 -1
    outer loop
      vertex 3.59999 50.6657 0
      vertex 6.79999 55.9901 0
      vertex 6.79999 48 0
    endloop
  endfacet
  facet normal 0 -0 -1
    outer loop
      vertex 6.79887 56.0067 0
      vertex 6.79999 55.9901 0
      vertex 3.59999 50.6657 0
    endloop
  endfacet
  facet normal 0 0 -1
    outer loop
      vertex 6.79999 55.9901 0
      vertex 6.79887 56.0067 0
      vertex 6.79935 56.0031 0
    endloop
  endfacet
  facet normal 0 0 -1
    outer loop
      vertex 3.59999 61.9901 0
      vertex 6.79887 56.0067 0
      vertex 3.59999 50.6657 0
    endloop
  endfacet
  facet normal 0 0 -1
    outer loop
      vertex 6.79887 56.0067 0
      vertex 3.59999 61.9901 0
      vertex 5.80161 61.9903 0
    endloop
  endfacet
  facet normal 0 0 -1
    outer loop
      vertex 5.80161 61.9903 0
      vertex 5.78687 62 0
      vertex 5.79967 61.9992 0
    endloop
  endfacet
  facet normal -0 0 -1
    outer loop
      vertex 5.80161 61.9903 0
      vertex 3.59999 61.9901 0
      vertex 5.78687 62 0
    endloop
  endfacet
  facet normal -0 0 -1
    outer loop
      vertex 5.78687 62 0
      vertex 3.59999 61.9901 0
      vertex 3.60994 62 0
    endloop
  endfacet
  facet normal 0 0 -1
    outer loop
      vertex 6.79999 48 0
      vertex 3.59807 50.6265 0
      vertex 3.59999 50.6657 0
    endloop
  endfacet
  facet normal 0 0 -1
    outer loop
      vertex 6.79999 48 0
      vertex 3.59232 50.5876 0
      vertex 3.59807 50.6265 0
    endloop
  endfacet
  facet normal 0 0 -1
    outer loop
      vertex 6.79999 48 0
      vertex 3.58278 50.5496 0
      vertex 3.59232 50.5876 0
    endloop
  endfacet
  facet normal 0 0 -1
    outer loop
      vertex 6.79999 48 0
      vertex 3.56955 50.5126 0
      vertex 3.58278 50.5496 0
    endloop
  endfacet
  facet normal 0 0 -1
    outer loop
      vertex 6.79999 48 0
      vertex 3.55276 50.4771 0
      vertex 3.56955 50.5126 0
    endloop
  endfacet
  facet normal 0 0 -1
    outer loop
      vertex 6.79999 48 0
      vertex 3.53258 50.4435 0
      vertex 3.55276 50.4771 0
    endloop
  endfacet
  facet normal 0 0 -1
    outer loop
      vertex 6.79999 48 0
      vertex 3.5092 50.4119 0
      vertex 3.53258 50.4435 0
    endloop
  endfacet
  facet normal 0 0 -1
    outer loop
      vertex 6.79999 48 0
      vertex 3.48283 50.3828 0
      vertex 3.5092 50.4119 0
    endloop
  endfacet
  facet normal 0 0 -1
    outer loop
      vertex 2.39999 39.8874 0
      vertex 6.79999 48 0
      vertex 87.6 39.8874 0
    endloop
  endfacet
  facet normal 0 0 -1
    outer loop
      vertex 1.10698 48.007 0
      vertex 6.79999 48 0
      vertex 2.39999 39.8874 0
    endloop
  endfacet
  facet normal 0 0 -1
    outer loop
      vertex 6.79999 48 0
      vertex 1.10698 48.007 0
      vertex 3.48283 50.3828 0
    endloop
  endfacet
  facet normal 0 0 -1
    outer loop
      vertex 83.2011 60.0067 0
      vertex 83.2 59.9901 0
      vertex 83.2007 60.0031 0
    endloop
  endfacet
  facet normal 0 0 -1
    outer loop
      vertex 3.60994 62 0
      vertex 3.59999 61.9901 0
      vertex 3.60045 61.9995 0
    endloop
  endfacet
endsolid OpenSCAD_Model
