solid OpenSCAD_Model
  facet normal 0 0 -1
    outer loop
      vertex 3.62961 0.0456818 0
      vertex 3.51704 0.0115326 0
      vertex 3.39999 1.2207e-05 0
    endloop
  endfacet
  facet normal -0 0 -1
    outer loop
      vertex 3.73334 0.101132 0
      vertex 3.39999 1.2207e-05 0
      vertex 3.82425 0.175748 0
    endloop
  endfacet
  facet normal -0 0 -1
    outer loop
      vertex 3.62961 0.0456818 0
      vertex 3.39999 1.2207e-05 0
      vertex 3.73334 0.101132 0
    endloop
  endfacet
  facet normal 0 0 -1
    outer loop
      vertex 3.82425 0.175748 0
      vertex 3.95432 0.370404 0
      vertex 3.89888 0.26666 0
    endloop
  endfacet
  facet normal -0 0 -1
    outer loop
      vertex 3.82425 0.175748 0
      vertex 3.39999 1.2207e-05 0
      vertex 3.95432 0.370404 0
    endloop
  endfacet
  facet normal 0 0 -1
    outer loop
      vertex 3.95432 0.370404 0
      vertex 4 0.600003 0
      vertex 3.98846 0.482953 0
    endloop
  endfacet
  facet normal -0 0 -1
    outer loop
      vertex 3.95432 0.370404 0
      vertex 3.39999 1.2207e-05 0
      vertex 4 0.600003 0
    endloop
  endfacet
  facet normal -0 0 -1
    outer loop
      vertex 4 0.600003 0
      vertex 0 1.2207e-05 0
      vertex 4 20.3 0
    endloop
  endfacet
  facet normal -0 0 -1
    outer loop
      vertex 4 20.3 0
      vertex 0 1.2207e-05 0
      vertex 0 40.8 0
    endloop
  endfacet
  facet normal -0 0 -1
    outer loop
      vertex 59.431 20.3154 0
      vertex 59.275 20.3 0
      vertex 59.8407 20.5343 0
    endloop
  endfacet
  facet normal 0 0 -1
    outer loop
      vertex 14.9657 17.3709 0
      vertex 14.9152 17.4011 0
      vertex 14.8679 17.4362 0
    endloop
  endfacet
  facet normal 0 0 -1
    outer loop
      vertex 14.8242 17.4757 0
      vertex 14.9657 17.3709 0
      vertex 14.8679 17.4362 0
    endloop
  endfacet
  facet normal 0 0 -1
    outer loop
      vertex 15.0744 17.3258 0
      vertex 15.0189 17.3457 0
      vertex 14.9657 17.3709 0
    endloop
  endfacet
  facet normal 0 0 -1
    outer loop
      vertex 14.8242 17.4757 0
      vertex 15.0744 17.3258 0
      vertex 14.9657 17.3709 0
    endloop
  endfacet
  facet normal 0 0 -1
    outer loop
      vertex 15.1897 17.3029 0
      vertex 15.1315 17.3115 0
      vertex 15.0744 17.3258 0
    endloop
  endfacet
  facet normal 0 0 -1
    outer loop
      vertex 14.8242 17.4757 0
      vertex 15.1897 17.3029 0
      vertex 15.0744 17.3258 0
    endloop
  endfacet
  facet normal 0 0 -1
    outer loop
      vertex 14.8242 17.4757 0
      vertex 15.2485 17.3 0
      vertex 15.1897 17.3029 0
    endloop
  endfacet
  facet normal 0 0 -1
    outer loop
      vertex 17.8242 17.4757 0
      vertex 17.9543 17.6704 0
      vertex 17.8989 17.5667 0
    endloop
  endfacet
  facet normal 0 0 -1
    outer loop
      vertex 17.8242 17.4757 0
      vertex 17.517 17.3115 0
      vertex 17.4 17.3 0
    endloop
  endfacet
  facet normal 0 0 -1
    outer loop
      vertex 17.8242 17.4757 0
      vertex 17.6296 17.3457 0
      vertex 17.517 17.3115 0
    endloop
  endfacet
  facet normal 0 0 -1
    outer loop
      vertex 17.8242 17.4757 0
      vertex 17.7333 17.4011 0
      vertex 17.6296 17.3457 0
    endloop
  endfacet
  facet normal 0 0 -1
    outer loop
      vertex 17.8242 17.4757 0
      vertex 17.9885 17.783 0
      vertex 17.9543 17.6704 0
    endloop
  endfacet
  facet normal 0 0 -1
    outer loop
      vertex 17.8242 17.4757 0
      vertex 18 17.9 0
      vertex 17.9885 17.783 0
    endloop
  endfacet
  facet normal -0 0 -1
    outer loop
      vertex 17.8242 17.4757 0
      vertex 17.4 17.3 0
      vertex 18 17.9 0
    endloop
  endfacet
  facet normal -0 0 -1
    outer loop
      vertex 18 17.9 0
      vertex 17.4 17.3 0
      vertex 18 19.3 0
    endloop
  endfacet
  facet normal 0 0 -1
    outer loop
      vertex 18 19.3 0
      vertex 17.4 17.3 0
      vertex 15.2485 17.3 0
    endloop
  endfacet
  facet normal 0 0 -1
    outer loop
      vertex 14.8242 17.4757 0
      vertex 18 19.3 0
      vertex 15.2485 17.3 0
    endloop
  endfacet
  facet normal 0 0 -1
    outer loop
      vertex 14.8242 17.4757 0
      vertex 12 20.3 0
      vertex 18 19.3 0
    endloop
  endfacet
  facet normal 0 0 -1
    outer loop
      vertex 18 19.3 0
      vertex 12 20.3 0
      vertex 19 20.3 0
    endloop
  endfacet
  facet normal -0 0 -1
    outer loop
      vertex 59.7194 20.4348 0
      vertex 59.431 20.3154 0
      vertex 59.8407 20.5343 0
    endloop
  endfacet
  facet normal 0 0 -1
    outer loop
      vertex 59.7194 20.4348 0
      vertex 59.5811 20.3609 0
      vertex 59.431 20.3154 0
    endloop
  endfacet
  facet normal 0 0 -1
    outer loop
      vertex 59.8407 20.5343 0
      vertex 60.0141 20.7938 0
      vertex 59.9401 20.6555 0
    endloop
  endfacet
  facet normal 0 0 -1
    outer loop
      vertex 59.8407 20.5343 0
      vertex 60.0596 20.9439 0
      vertex 60.0141 20.7938 0
    endloop
  endfacet
  facet normal -0 0 -1
    outer loop
      vertex 59.8407 20.5343 0
      vertex 59.275 20.3 0
      vertex 60.0596 20.9439 0
    endloop
  endfacet
  facet normal -0 0 -1
    outer loop
      vertex 60.0596 20.9439 0
      vertex 59.275 20.3 0
      vertex 60.075 21.1 0
    endloop
  endfacet
  facet normal -0 0 -1
    outer loop
      vertex 60.075 21.1 0
      vertex 59.275 20.3 0
      vertex 60.075 39.3 0
    endloop
  endfacet
  facet normal 0 0 -1
    outer loop
      vertex 58.8676 40.7712 0
      vertex 59.149 40.6858 0
      vertex 59.4083 40.5472 0
    endloop
  endfacet
  facet normal 0 0 -1
    outer loop
      vertex 59.6356 40.3607 0
      vertex 59.8222 40.1333 0
      vertex 59.9608 39.874 0
    endloop
  endfacet
  facet normal 0 0 -1
    outer loop
      vertex 60.0461 39.5926 0
      vertex 59.6356 40.3607 0
      vertex 59.9608 39.874 0
    endloop
  endfacet
  facet normal -0 -0 -1
    outer loop
      vertex 60.0461 39.5926 0
      vertex 60.075 39.3 0
      vertex 59.6356 40.3607 0
    endloop
  endfacet
  facet normal 0 0 -1
    outer loop
      vertex 58.575 40.8 0
      vertex 58.8676 40.7712 0
      vertex 59.4083 40.5472 0
    endloop
  endfacet
  facet normal 0 0 -1
    outer loop
      vertex 58.575 40.8 0
      vertex 59.4083 40.5472 0
      vertex 59.6356 40.3607 0
    endloop
  endfacet
  facet normal 0 0 -1
    outer loop
      vertex 60.075 39.3 0
      vertex 58.575 40.8 0
      vertex 59.6356 40.3607 0
    endloop
  endfacet
  facet normal -0 0 -1
    outer loop
      vertex 60.075 39.3 0
      vertex 59.275 20.3 0
      vertex 58.575 40.8 0
    endloop
  endfacet
  facet normal 0 -0 -1
    outer loop
      vertex 58.575 40.8 0
      vertex 59.275 20.3 0
      vertex 19 20.3 0
    endloop
  endfacet
  facet normal 0 0 -1
    outer loop
      vertex 0 40.8 0
      vertex 58.575 40.8 0
      vertex 19 20.3 0
    endloop
  endfacet
  facet normal 0 0 -1
    outer loop
      vertex 12 20.3 0
      vertex 0 40.8 0
      vertex 19 20.3 0
    endloop
  endfacet
  facet normal 0 0 -1
    outer loop
      vertex 12 20.3 0
      vertex 4 20.3 0
      vertex 0 40.8 0
    endloop
  endfacet
  facet normal 0 0 -1
    outer loop
      vertex 4 0.600003 0
      vertex 3.39999 1.2207e-05 0
      vertex 0 1.2207e-05 0
    endloop
  endfacet
  facet normal 0 0 1
    outer loop
      vertex 3.39999 1.2207e-05 2
      vertex 3.51704 0.0115326 2
      vertex 3.62961 0.0456818 2
    endloop
  endfacet
  facet normal 0 0 1
    outer loop
      vertex 3.82425 0.175748 2
      vertex 3.39999 1.2207e-05 2
      vertex 3.73334 0.101132 2
    endloop
  endfacet
  facet normal 0 0 1
    outer loop
      vertex 3.73334 0.101132 2
      vertex 3.39999 1.2207e-05 2
      vertex 3.62961 0.0456818 2
    endloop
  endfacet
  facet normal 0 -0 1
    outer loop
      vertex 3.89888 0.26666 2
      vertex 3.95432 0.370404 2
      vertex 3.82425 0.175748 2
    endloop
  endfacet
  facet normal 0 0 1
    outer loop
      vertex 3.95432 0.370404 2
      vertex 3.39999 1.2207e-05 2
      vertex 3.82425 0.175748 2
    endloop
  endfacet
  facet normal 0 -0 1
    outer loop
      vertex 3.98846 0.482953 2
      vertex 4 0.600003 2
      vertex 3.95432 0.370404 2
    endloop
  endfacet
  facet normal 0 0 1
    outer loop
      vertex 4 0.600003 2
      vertex 3.39999 1.2207e-05 2
      vertex 3.95432 0.370404 2
    endloop
  endfacet
  facet normal 0 0 1
    outer loop
      vertex 4 20.3 2
      vertex 0 1.2207e-05 2
      vertex 4 0.600003 2
    endloop
  endfacet
  facet normal 0 0 1
    outer loop
      vertex 0 40.8 2
      vertex 0 1.2207e-05 2
      vertex 4 20.3 2
    endloop
  endfacet
  facet normal 0 0 1
    outer loop
      vertex 59.8407 20.5343 2
      vertex 59.275 20.3 2
      vertex 59.431 20.3154 2
    endloop
  endfacet
  facet normal 0 0 1
    outer loop
      vertex 14.8679 17.4362 2
      vertex 14.9152 17.4011 2
      vertex 14.9657 17.3709 2
    endloop
  endfacet
  facet normal -0 -0 1
    outer loop
      vertex 14.8679 17.4362 2
      vertex 14.9657 17.3709 2
      vertex 14.8242 17.4757 2
    endloop
  endfacet
  facet normal 0 0 1
    outer loop
      vertex 14.9657 17.3709 2
      vertex 15.0189 17.3457 2
      vertex 15.0744 17.3258 2
    endloop
  endfacet
  facet normal -0 -0 1
    outer loop
      vertex 14.9657 17.3709 2
      vertex 15.0744 17.3258 2
      vertex 14.8242 17.4757 2
    endloop
  endfacet
  facet normal 0 0 1
    outer loop
      vertex 15.0744 17.3258 2
      vertex 15.1315 17.3115 2
      vertex 15.1897 17.3029 2
    endloop
  endfacet
  facet normal -0 -0 1
    outer loop
      vertex 15.0744 17.3258 2
      vertex 15.1897 17.3029 2
      vertex 14.8242 17.4757 2
    endloop
  endfacet
  facet normal -0 -0 1
    outer loop
      vertex 15.1897 17.3029 2
      vertex 15.2485 17.3 2
      vertex 14.8242 17.4757 2
    endloop
  endfacet
  facet normal 0 -0 1
    outer loop
      vertex 17.8989 17.5667 2
      vertex 17.9543 17.6704 2
      vertex 17.8242 17.4757 2
    endloop
  endfacet
  facet normal 0 0 1
    outer loop
      vertex 17.4 17.3 2
      vertex 17.517 17.3115 2
      vertex 17.8242 17.4757 2
    endloop
  endfacet
  facet normal 0 0 1
    outer loop
      vertex 17.517 17.3115 2
      vertex 17.6296 17.3457 2
      vertex 17.8242 17.4757 2
    endloop
  endfacet
  facet normal 0 0 1
    outer loop
      vertex 17.6296 17.3457 2
      vertex 17.7333 17.4011 2
      vertex 17.8242 17.4757 2
    endloop
  endfacet
  facet normal 0 -0 1
    outer loop
      vertex 17.9543 17.6704 2
      vertex 17.9885 17.783 2
      vertex 17.8242 17.4757 2
    endloop
  endfacet
  facet normal 0 -0 1
    outer loop
      vertex 17.9885 17.783 2
      vertex 18 17.9 2
      vertex 17.8242 17.4757 2
    endloop
  endfacet
  facet normal 0 0 1
    outer loop
      vertex 18 17.9 2
      vertex 17.4 17.3 2
      vertex 17.8242 17.4757 2
    endloop
  endfacet
  facet normal 0 0 1
    outer loop
      vertex 18 19.3 2
      vertex 17.4 17.3 2
      vertex 18 17.9 2
    endloop
  endfacet
  facet normal 0 0 1
    outer loop
      vertex 15.2485 17.3 2
      vertex 17.4 17.3 2
      vertex 18 19.3 2
    endloop
  endfacet
  facet normal 0 -0 1
    outer loop
      vertex 15.2485 17.3 2
      vertex 18 19.3 2
      vertex 14.8242 17.4757 2
    endloop
  endfacet
  facet normal 0 0 1
    outer loop
      vertex 18 19.3 2
      vertex 12 20.3 2
      vertex 14.8242 17.4757 2
    endloop
  endfacet
  facet normal 0 0 1
    outer loop
      vertex 19 20.3 2
      vertex 12 20.3 2
      vertex 18 19.3 2
    endloop
  endfacet
  facet normal 0 0 1
    outer loop
      vertex 59.8407 20.5343 2
      vertex 59.431 20.3154 2
      vertex 59.7194 20.4348 2
    endloop
  endfacet
  facet normal 0 0 1
    outer loop
      vertex 59.431 20.3154 2
      vertex 59.5811 20.3609 2
      vertex 59.7194 20.4348 2
    endloop
  endfacet
  facet normal 0 -0 1
    outer loop
      vertex 59.9401 20.6555 2
      vertex 60.0141 20.7938 2
      vertex 59.8407 20.5343 2
    endloop
  endfacet
  facet normal 0 -0 1
    outer loop
      vertex 60.0141 20.7938 2
      vertex 60.0596 20.9439 2
      vertex 59.8407 20.5343 2
    endloop
  endfacet
  facet normal 0 0 1
    outer loop
      vertex 60.0596 20.9439 2
      vertex 59.275 20.3 2
      vertex 59.8407 20.5343 2
    endloop
  endfacet
  facet normal 0 0 1
    outer loop
      vertex 60.075 21.1 2
      vertex 59.275 20.3 2
      vertex 60.0596 20.9439 2
    endloop
  endfacet
  facet normal 0 0 1
    outer loop
      vertex 60.075 39.3 2
      vertex 59.275 20.3 2
      vertex 60.075 21.1 2
    endloop
  endfacet
  facet normal 0 0 1
    outer loop
      vertex 59.4083 40.5472 2
      vertex 59.149 40.6858 2
      vertex 58.8676 40.7712 2
    endloop
  endfacet
  facet normal 0 0 1
    outer loop
      vertex 59.9608 39.874 2
      vertex 59.8222 40.1333 2
      vertex 59.6356 40.3607 2
    endloop
  endfacet
  facet normal 0 0 1
    outer loop
      vertex 59.9608 39.874 2
      vertex 59.6356 40.3607 2
      vertex 60.0461 39.5926 2
    endloop
  endfacet
  facet normal 0 0 1
    outer loop
      vertex 59.6356 40.3607 2
      vertex 60.075 39.3 2
      vertex 60.0461 39.5926 2
    endloop
  endfacet
  facet normal 0 0 1
    outer loop
      vertex 59.4083 40.5472 2
      vertex 58.8676 40.7712 2
      vertex 58.575 40.8 2
    endloop
  endfacet
  facet normal 0 0 1
    outer loop
      vertex 59.6356 40.3607 2
      vertex 59.4083 40.5472 2
      vertex 58.575 40.8 2
    endloop
  endfacet
  facet normal 0 0 1
    outer loop
      vertex 59.6356 40.3607 2
      vertex 58.575 40.8 2
      vertex 60.075 39.3 2
    endloop
  endfacet
  facet normal 0 0 1
    outer loop
      vertex 58.575 40.8 2
      vertex 59.275 20.3 2
      vertex 60.075 39.3 2
    endloop
  endfacet
  facet normal 0 0 1
    outer loop
      vertex 19 20.3 2
      vertex 59.275 20.3 2
      vertex 58.575 40.8 2
    endloop
  endfacet
  facet normal 0 -0 1
    outer loop
      vertex 19 20.3 2
      vertex 58.575 40.8 2
      vertex 0 40.8 2
    endloop
  endfacet
  facet normal 0 0 1
    outer loop
      vertex 19 20.3 2
      vertex 0 40.8 2
      vertex 12 20.3 2
    endloop
  endfacet
  facet normal 0 0 1
    outer loop
      vertex 0 40.8 2
      vertex 4 20.3 2
      vertex 12 20.3 2
    endloop
  endfacet
  facet normal 0 0 1
    outer loop
      vertex 0 1.2207e-05 2
      vertex 3.39999 1.2207e-05 2
      vertex 4 0.600003 2
    endloop
  endfacet
  facet normal 0.290296 -0.956937 0
    outer loop
      vertex 3.62961 0.0456818 0
      vertex 3.51704 0.0115326 2
      vertex 3.51704 0.0115326 0
    endloop
  endfacet
  facet normal 0.290296 -0.956937 0
    outer loop
      vertex 3.62961 0.0456818 0
      vertex 3.62961 0.0456818 2
      vertex 3.51704 0.0115326 2
    endloop
  endfacet
  facet normal 0.471432 -0.881902 0
    outer loop
      vertex 3.73334 0.101132 0
      vertex 3.62961 0.0456818 2
      vertex 3.62961 0.0456818 0
    endloop
  endfacet
  facet normal 0.471432 -0.881902 0
    outer loop
      vertex 3.73334 0.101132 0
      vertex 3.73334 0.101132 2
      vertex 3.62961 0.0456818 2
    endloop
  endfacet
  facet normal 0.634434 -0.772977 0
    outer loop
      vertex 3.82425 0.175748 0
      vertex 3.73334 0.101132 2
      vertex 3.73334 0.101132 0
    endloop
  endfacet
  facet normal 0.634434 -0.772977 0
    outer loop
      vertex 3.82425 0.175748 0
      vertex 3.82425 0.175748 2
      vertex 3.73334 0.101132 2
    endloop
  endfacet
  facet normal 0.772925 -0.634497 0
    outer loop
      vertex 3.89888 0.26666 0
      vertex 3.82425 0.175748 2
      vertex 3.82425 0.175748 0
    endloop
  endfacet
  facet normal 0.772925 -0.634497 0
    outer loop
      vertex 3.89888 0.26666 0
      vertex 3.89888 0.26666 2
      vertex 3.82425 0.175748 2
    endloop
  endfacet
  facet normal 0.881965 -0.471315 0
    outer loop
      vertex 3.95432 0.370404 0
      vertex 3.89888 0.26666 2
      vertex 3.89888 0.26666 0
    endloop
  endfacet
  facet normal 0.881965 -0.471315 0
    outer loop
      vertex 3.95432 0.370404 0
      vertex 3.95432 0.370404 2
      vertex 3.89888 0.26666 2
    endloop
  endfacet
  facet normal 0.956944 -0.290274 0
    outer loop
      vertex 3.98846 0.482953 0
      vertex 3.95432 0.370404 2
      vertex 3.95432 0.370404 0
    endloop
  endfacet
  facet normal 0.956944 -0.290274 0
    outer loop
      vertex 3.98846 0.482953 0
      vertex 3.98846 0.482953 2
      vertex 3.95432 0.370404 2
    endloop
  endfacet
  facet normal 0.995175 -0.0981147 0
    outer loop
      vertex 4 0.600003 0
      vertex 3.98846 0.482953 2
      vertex 3.98846 0.482953 0
    endloop
  endfacet
  facet normal 0.995175 -0.0981147 0
    outer loop
      vertex 4 0.600003 0
      vertex 4 0.600003 2
      vertex 3.98846 0.482953 2
    endloop
  endfacet
  facet normal 1 0 0
    outer loop
      vertex 4 20.3 0
      vertex 4 0.600003 2
      vertex 4 0.600003 0
    endloop
  endfacet
  facet normal 1 0 -0
    outer loop
      vertex 4 20.3 0
      vertex 4 20.3 2
      vertex 4 0.600003 2
    endloop
  endfacet
  facet normal 0 -1 0
    outer loop
      vertex 12 20.3 0
      vertex 4 20.3 2
      vertex 4 20.3 0
    endloop
  endfacet
  facet normal 0 -1 0
    outer loop
      vertex 12 20.3 0
      vertex 12 20.3 2
      vertex 4 20.3 2
    endloop
  endfacet
  facet normal -0.707119 -0.707094 0
    outer loop
      vertex 14.8242 17.4757 0
      vertex 12 20.3 2
      vertex 12 20.3 0
    endloop
  endfacet
  facet normal -0.707119 -0.707094 0
    outer loop
      vertex 14.8242 17.4757 0
      vertex 14.8242 17.4757 2
      vertex 12 20.3 2
    endloop
  endfacet
  facet normal -0.670558 -0.741857 0
    outer loop
      vertex 14.8679 17.4362 0
      vertex 14.8242 17.4757 2
      vertex 14.8242 17.4757 0
    endloop
  endfacet
  facet normal -0.670558 -0.741857 0
    outer loop
      vertex 14.8679 17.4362 0
      vertex 14.8679 17.4362 2
      vertex 14.8242 17.4757 2
    endloop
  endfacet
  facet normal -0.595918 -0.803046 0
    outer loop
      vertex 14.9152 17.4011 0
      vertex 14.8679 17.4362 2
      vertex 14.8679 17.4362 0
    endloop
  endfacet
  facet normal -0.595918 -0.803046 0
    outer loop
      vertex 14.9152 17.4011 0
      vertex 14.9152 17.4011 2
      vertex 14.8679 17.4362 2
    endloop
  endfacet
  facet normal -0.513246 -0.858242 0
    outer loop
      vertex 14.9657 17.3709 0
      vertex 14.9152 17.4011 2
      vertex 14.9152 17.4011 0
    endloop
  endfacet
  facet normal -0.513246 -0.858242 0
    outer loop
      vertex 14.9657 17.3709 0
      vertex 14.9657 17.3709 2
      vertex 14.9152 17.4011 2
    endloop
  endfacet
  facet normal -0.428086 -0.903738 0
    outer loop
      vertex 15.0189 17.3457 0
      vertex 14.9657 17.3709 2
      vertex 14.9657 17.3709 0
    endloop
  endfacet
  facet normal -0.428086 -0.903738 0
    outer loop
      vertex 15.0189 17.3457 0
      vertex 15.0189 17.3457 2
      vertex 14.9657 17.3709 2
    endloop
  endfacet
  facet normal -0.337518 -0.941319 0
    outer loop
      vertex 15.0744 17.3258 0
      vertex 15.0189 17.3457 2
      vertex 15.0189 17.3457 0
    endloop
  endfacet
  facet normal -0.337518 -0.941319 0
    outer loop
      vertex 15.0744 17.3258 0
      vertex 15.0744 17.3258 2
      vertex 15.0189 17.3457 2
    endloop
  endfacet
  facet normal -0.242935 -0.970042 0
    outer loop
      vertex 15.1315 17.3115 0
      vertex 15.0744 17.3258 2
      vertex 15.0744 17.3258 0
    endloop
  endfacet
  facet normal -0.242935 -0.970042 0
    outer loop
      vertex 15.1315 17.3115 0
      vertex 15.1315 17.3115 2
      vertex 15.0744 17.3258 2
    endloop
  endfacet
  facet normal -0.146179 -0.989258 0
    outer loop
      vertex 15.1897 17.3029 0
      vertex 15.1315 17.3115 2
      vertex 15.1315 17.3115 0
    endloop
  endfacet
  facet normal -0.146179 -0.989258 0
    outer loop
      vertex 15.1897 17.3029 0
      vertex 15.1897 17.3029 2
      vertex 15.1315 17.3115 2
    endloop
  endfacet
  facet normal -0.0492599 -0.998786 0
    outer loop
      vertex 15.2485 17.3 0
      vertex 15.1897 17.3029 2
      vertex 15.1897 17.3029 0
    endloop
  endfacet
  facet normal -0.0492599 -0.998786 0
    outer loop
      vertex 15.2485 17.3 0
      vertex 15.2485 17.3 2
      vertex 15.1897 17.3029 2
    endloop
  endfacet
  facet normal 0 -1 0
    outer loop
      vertex 17.4 17.3 0
      vertex 15.2485 17.3 2
      vertex 15.2485 17.3 0
    endloop
  endfacet
  facet normal 0 -1 0
    outer loop
      vertex 17.4 17.3 0
      vertex 17.4 17.3 2
      vertex 15.2485 17.3 2
    endloop
  endfacet
  facet normal 0.0978192 -0.995204 0
    outer loop
      vertex 17.517 17.3115 0
      vertex 17.4 17.3 2
      vertex 17.4 17.3 0
    endloop
  endfacet
  facet normal 0.0978192 -0.995204 0
    outer loop
      vertex 17.517 17.3115 0
      vertex 17.517 17.3115 2
      vertex 17.4 17.3 2
    endloop
  endfacet
  facet normal 0.290621 -0.956838 0
    outer loop
      vertex 17.6296 17.3457 0
      vertex 17.517 17.3115 2
      vertex 17.517 17.3115 0
    endloop
  endfacet
  facet normal 0.290621 -0.956838 0
    outer loop
      vertex 17.6296 17.3457 0
      vertex 17.6296 17.3457 2
      vertex 17.517 17.3115 2
    endloop
  endfacet
  facet normal 0.471206 -0.882023 0
    outer loop
      vertex 17.7333 17.4011 0
      vertex 17.6296 17.3457 2
      vertex 17.6296 17.3457 0
    endloop
  endfacet
  facet normal 0.471206 -0.882023 0
    outer loop
      vertex 17.7333 17.4011 0
      vertex 17.7333 17.4011 2
      vertex 17.6296 17.3457 2
    endloop
  endfacet
  facet normal 0.634395 -0.773009 0
    outer loop
      vertex 17.8242 17.4757 0
      vertex 17.7333 17.4011 2
      vertex 17.7333 17.4011 0
    endloop
  endfacet
  facet normal 0.634395 -0.773009 0
    outer loop
      vertex 17.8242 17.4757 0
      vertex 17.8242 17.4757 2
      vertex 17.7333 17.4011 2
    endloop
  endfacet
  facet normal 0.772935 -0.634486 0
    outer loop
      vertex 17.8989 17.5667 0
      vertex 17.8242 17.4757 2
      vertex 17.8242 17.4757 0
    endloop
  endfacet
  facet normal 0.772935 -0.634486 0
    outer loop
      vertex 17.8989 17.5667 0
      vertex 17.8989 17.5667 2
      vertex 17.8242 17.4757 2
    endloop
  endfacet
  facet normal 0.882023 -0.471206 0
    outer loop
      vertex 17.9543 17.6704 0
      vertex 17.8989 17.5667 2
      vertex 17.8989 17.5667 0
    endloop
  endfacet
  facet normal 0.882023 -0.471206 0
    outer loop
      vertex 17.9543 17.6704 0
      vertex 17.9543 17.6704 2
      vertex 17.8989 17.5667 2
    endloop
  endfacet
  facet normal 0.956838 -0.290621 0
    outer loop
      vertex 17.9885 17.783 0
      vertex 17.9543 17.6704 2
      vertex 17.9543 17.6704 0
    endloop
  endfacet
  facet normal 0.956838 -0.290621 0
    outer loop
      vertex 17.9885 17.783 0
      vertex 17.9885 17.783 2
      vertex 17.9543 17.6704 2
    endloop
  endfacet
  facet normal 0.995204 -0.0978192 0
    outer loop
      vertex 18 17.9 0
      vertex 17.9885 17.783 2
      vertex 17.9885 17.783 0
    endloop
  endfacet
  facet normal 0.995204 -0.0978192 0
    outer loop
      vertex 18 17.9 0
      vertex 18 17.9 2
      vertex 17.9885 17.783 2
    endloop
  endfacet
  facet normal 1 0 0
    outer loop
      vertex 18 19.3 0
      vertex 18 17.9 2
      vertex 18 17.9 0
    endloop
  endfacet
  facet normal 1 0 -0
    outer loop
      vertex 18 19.3 0
      vertex 18 19.3 2
      vertex 18 17.9 2
    endloop
  endfacet
  facet normal 0.707107 -0.707107 0
    outer loop
      vertex 19 20.3 0
      vertex 18 19.3 2
      vertex 18 19.3 0
    endloop
  endfacet
  facet normal 0.707107 -0.707107 0
    outer loop
      vertex 19 20.3 0
      vertex 19 20.3 2
      vertex 18 19.3 2
    endloop
  endfacet
  facet normal 0 -1 0
    outer loop
      vertex 59.275 20.3 0
      vertex 19 20.3 2
      vertex 19 20.3 0
    endloop
  endfacet
  facet normal 0 -1 0
    outer loop
      vertex 59.275 20.3 0
      vertex 59.275 20.3 2
      vertex 19 20.3 2
    endloop
  endfacet
  facet normal 0.0982404 -0.995163 0
    outer loop
      vertex 59.431 20.3154 0
      vertex 59.275 20.3 2
      vertex 59.275 20.3 0
    endloop
  endfacet
  facet normal 0.0982404 -0.995163 0
    outer loop
      vertex 59.431 20.3154 0
      vertex 59.431 20.3154 2
      vertex 59.275 20.3 2
    endloop
  endfacet
  facet normal 0.290096 -0.956998 0
    outer loop
      vertex 59.5811 20.3609 0
      vertex 59.431 20.3154 2
      vertex 59.431 20.3154 0
    endloop
  endfacet
  facet normal 0.290096 -0.956998 0
    outer loop
      vertex 59.5811 20.3609 0
      vertex 59.5811 20.3609 2
      vertex 59.431 20.3154 2
    endloop
  endfacet
  facet normal 0.471283 -0.881982 0
    outer loop
      vertex 59.7194 20.4348 0
      vertex 59.5811 20.3609 2
      vertex 59.5811 20.3609 0
    endloop
  endfacet
  facet normal 0.471283 -0.881982 0
    outer loop
      vertex 59.7194 20.4348 0
      vertex 59.7194 20.4348 2
      vertex 59.5811 20.3609 2
    endloop
  endfacet
  facet normal 0.634209 -0.773162 0
    outer loop
      vertex 59.8407 20.5343 0
      vertex 59.7194 20.4348 2
      vertex 59.7194 20.4348 0
    endloop
  endfacet
  facet normal 0.634209 -0.773162 0
    outer loop
      vertex 59.8407 20.5343 0
      vertex 59.8407 20.5343 2
      vertex 59.7194 20.4348 2
    endloop
  endfacet
  facet normal 0.773218 -0.634141 0
    outer loop
      vertex 59.9401 20.6555 0
      vertex 59.8407 20.5343 2
      vertex 59.8407 20.5343 0
    endloop
  endfacet
  facet normal 0.773218 -0.634141 0
    outer loop
      vertex 59.9401 20.6555 0
      vertex 59.9401 20.6555 2
      vertex 59.8407 20.5343 2
    endloop
  endfacet
  facet normal 0.881717 -0.471779 0
    outer loop
      vertex 60.0141 20.7938 0
      vertex 59.9401 20.6555 2
      vertex 59.9401 20.6555 0
    endloop
  endfacet
  facet normal 0.881717 -0.471779 0
    outer loop
      vertex 60.0141 20.7938 0
      vertex 60.0141 20.7938 2
      vertex 59.9401 20.6555 2
    endloop
  endfacet
  facet normal 0.956998 -0.290096 0
    outer loop
      vertex 60.0596 20.9439 0
      vertex 60.0141 20.7938 2
      vertex 60.0141 20.7938 0
    endloop
  endfacet
  facet normal 0.956998 -0.290096 0
    outer loop
      vertex 60.0596 20.9439 0
      vertex 60.0596 20.9439 2
      vertex 60.0141 20.7938 2
    endloop
  endfacet
  facet normal 0.995169 -0.0981781 0
    outer loop
      vertex 60.075 21.1 0
      vertex 60.0596 20.9439 2
      vertex 60.0596 20.9439 0
    endloop
  endfacet
  facet normal 0.995169 -0.0981781 0
    outer loop
      vertex 60.075 21.1 0
      vertex 60.075 21.1 2
      vertex 60.0596 20.9439 2
    endloop
  endfacet
  facet normal 1 0 0
    outer loop
      vertex 60.075 39.3 0
      vertex 60.075 21.1 2
      vertex 60.075 21.1 0
    endloop
  endfacet
  facet normal 1 0 -0
    outer loop
      vertex 60.075 39.3 0
      vertex 60.075 39.3 2
      vertex 60.075 21.1 2
    endloop
  endfacet
  facet normal 0.995158 0.0982914 0
    outer loop
      vertex 60.0461 39.5926 0
      vertex 60.075 39.3 2
      vertex 60.075 39.3 0
    endloop
  endfacet
  facet normal 0.995158 0.0982914 -0
    outer loop
      vertex 60.0461 39.5926 0
      vertex 60.0461 39.5926 2
      vertex 60.075 39.3 2
    endloop
  endfacet
  facet normal 0.956999 0.290092 0
    outer loop
      vertex 59.9608 39.874 0
      vertex 60.0461 39.5926 2
      vertex 60.0461 39.5926 0
    endloop
  endfacet
  facet normal 0.956999 0.290092 -0
    outer loop
      vertex 59.9608 39.874 0
      vertex 59.9608 39.874 2
      vertex 60.0461 39.5926 2
    endloop
  endfacet
  facet normal 0.881919 0.4714 0
    outer loop
      vertex 59.8222 40.1333 0
      vertex 59.9608 39.874 2
      vertex 59.9608 39.874 0
    endloop
  endfacet
  facet normal 0.881919 0.4714 -0
    outer loop
      vertex 59.8222 40.1333 0
      vertex 59.8222 40.1333 2
      vertex 59.9608 39.874 2
    endloop
  endfacet
  facet normal 0.773048 0.634348 0
    outer loop
      vertex 59.6356 40.3607 0
      vertex 59.8222 40.1333 2
      vertex 59.8222 40.1333 0
    endloop
  endfacet
  facet normal 0.773048 0.634348 -0
    outer loop
      vertex 59.6356 40.3607 0
      vertex 59.6356 40.3607 2
      vertex 59.8222 40.1333 2
    endloop
  endfacet
  facet normal 0.634311 0.773078 0
    outer loop
      vertex 59.4083 40.5472 0
      vertex 59.6356 40.3607 2
      vertex 59.6356 40.3607 0
    endloop
  endfacet
  facet normal 0.634311 0.773078 -0
    outer loop
      vertex 59.4083 40.5472 0
      vertex 59.4083 40.5472 2
      vertex 59.6356 40.3607 2
    endloop
  endfacet
  facet normal 0.4714 0.881919 0
    outer loop
      vertex 59.149 40.6858 0
      vertex 59.4083 40.5472 2
      vertex 59.4083 40.5472 0
    endloop
  endfacet
  facet normal 0.4714 0.881919 -0
    outer loop
      vertex 59.149 40.6858 0
      vertex 59.149 40.6858 2
      vertex 59.4083 40.5472 2
    endloop
  endfacet
  facet normal 0.290404 0.956904 0
    outer loop
      vertex 58.8676 40.7712 0
      vertex 59.149 40.6858 2
      vertex 59.149 40.6858 0
    endloop
  endfacet
  facet normal 0.290404 0.956904 -0
    outer loop
      vertex 58.8676 40.7712 0
      vertex 58.8676 40.7712 2
      vertex 59.149 40.6858 2
    endloop
  endfacet
  facet normal 0.0979545 0.995191 0
    outer loop
      vertex 58.575 40.8 0
      vertex 58.8676 40.7712 2
      vertex 58.8676 40.7712 0
    endloop
  endfacet
  facet normal 0.0979545 0.995191 -0
    outer loop
      vertex 58.575 40.8 0
      vertex 58.575 40.8 2
      vertex 58.8676 40.7712 2
    endloop
  endfacet
  facet normal 0 1 0
    outer loop
      vertex 0 40.8 0
      vertex 58.575 40.8 2
      vertex 58.575 40.8 0
    endloop
  endfacet
  facet normal 0 1 0
    outer loop
      vertex 0 40.8 0
      vertex 0 40.8 2
      vertex 58.575 40.8 2
    endloop
  endfacet
  facet normal -1 0 0
    outer loop
      vertex 0 1.2207e-05 0
      vertex 0 40.8 2
      vertex 0 40.8 0
    endloop
  endfacet
  facet normal -1 0 0
    outer loop
      vertex 0 1.2207e-05 0
      vertex 0 1.2207e-05 2
      vertex 0 40.8 2
    endloop
  endfacet
  facet normal 0 -1 0
    outer loop
      vertex 3.39999 1.2207e-05 0
      vertex 0 1.2207e-05 2
      vertex 0 1.2207e-05 0
    endloop
  endfacet
  facet normal 0 -1 0
    outer loop
      vertex 3.39999 1.2207e-05 0
      vertex 3.39999 1.2207e-05 2
      vertex 0 1.2207e-05 2
    endloop
  endfacet
  facet normal 0.0979496 -0.995191 0
    outer loop
      vertex 3.51704 0.0115326 0
      vertex 3.39999 1.2207e-05 2
      vertex 3.39999 1.2207e-05 0
    endloop
  endfacet
  facet normal 0.0979496 -0.995191 0
    outer loop
      vertex 3.51704 0.0115326 0
      vertex 3.51704 0.0115326 2
      vertex 3.39999 1.2207e-05 2
    endloop
  endfacet
endsolid OpenSCAD_Model
